<svg xmlns="http://www.w3.org/2000/svg" id="Sport7" width="152.692" height="140.995" viewBox="0 0 152.692 140.995">
    <defs>
        <style>
            .cls-1{fill:#f6b095}.cls-2{fill:#eca791}.cls-3{fill:#14508a}.cls-4{fill:#202121}.cls-5{fill:#de3341}.cls-6{fill:#343151}.cls-20,.cls-22,.cls-6,.cls-7{fill-rule:evenodd}.cls-7{fill:#009fe3}.cls-8{fill:#eda78f}.cls-9{fill:#1d71b8}.cls-10{fill:#575756}.cls-11,.cls-20{fill:#324150}.cls-12{fill:#dadada}.cls-13{fill:#66828c}.cls-14{fill:#97aeb7}.cls-15{fill:#3c2f27}.cls-16{fill:#fbbf4e}.cls-17{fill:#231f20}.cls-18{fill:#293d4b}.cls-19{fill:#3c3c3b}.cls-21{fill:#1c72b6}.cls-22{fill:#010101;opacity:.1}
        </style>
    </defs>
    <path id="Path_838" d="M213.89 147.55l-2.2.714s-3.3-.939-4.394-.176A2.538 2.538 0 0 0 206.2 150s.071.692.549.9 1.17-.373 1.17-.373l2.422-.3 1.439.549 2.746-1.445z" class="cls-1" data-name="Path 838" transform="translate(-163.556 -92.519)"/>
    <path id="Path_839" d="M180.26 95.049c-2.653 9.337-11.238 25.815-19.114 27.3l.906 1.417s19.026-1.648 26.364-26.5a5.63 5.63 0 0 0-3.532-6.91c-3.037-1.08-3.74 1.573-4.624 4.693z" class="cls-2" data-name="Path 839" transform="translate(-112.933 -66.629)"/>
    <path id="Path_840" d="M168.3 95.049A68.9 68.9 0 0 1 161.1 111l5.784 3.647a41.881 41.881 0 0 0 9.6-17.384 5.63 5.63 0 0 0-3.559-6.91c-3.036-1.077-3.739 1.576-4.625 4.696z" class="cls-3" data-name="Path 840" transform="translate(-100.974 -66.629)"/>
    <ellipse id="Ellipse_231" cx="10.408" cy="10.408" class="cls-1" data-name="Ellipse 231" rx="10.408" ry="10.408" transform="translate(42.732 2.995)"/>
    <path id="Path_841" d="M182.591 80.742l-10.639-5.882-1.142 2.922 7.558 9.8z" class="cls-1" data-name="Path 841" transform="translate(-112.183 -59.754)"/>
    <ellipse id="Ellipse_232" cx="3.202" cy="3.202" class="cls-1" data-name="Ellipse 232" rx="3.202" ry="3.202" transform="translate(51.97 9.224)"/>
    <path id="Path_842" d="M0 3.2h4.152a1.6 1.6 0 0 0 1.6-1.6 1.6 1.6 0 0 0-1.6-1.6H0z" class="cls-1" data-name="Path 842" transform="rotate(150.16 21.496 15.782)"/>
    <path id="Path_843" d="M212.856 71.707a.428.428 0 1 1-.135-.3.428.428 0 0 1 .135.3z" class="cls-4" data-name="Path 843" transform="translate(-165.072 -58.145)"/>
    <path id="Path_844" d="M203.135 67.022l-9.919 7.646s-5.119 1.878-7.14.286c-.967-.758-2.483-3.252-2.433-4.5a1.681 1.681 0 0 1 1.28-1.532s5.839-3.142 6.388-4.487 1.285-4.323-.231-4.943-7.772-.33-7.772-.33l-.1-2.785s-.264-5.657 4.251-7.766c3.6-1.681 11.348-2.587 15.044 3.416 4.609 7.492.632 14.995.632 14.995z" class="cls-5" data-name="Path 844" transform="translate(-141.125 -47.357)"/>
    <path id="Path_845" d="M218.338 69.13h-.077a1.214 1.214 0 0 0-1.2 1.313l.384 4.515a1.214 1.214 0 0 0 1.527 1.066l.637-.176a1.208 1.208 0 0 0 .862-1.423l-.945-4.339a1.219 1.219 0 0 0-1.192-.956z" class="cls-6" data-name="Path 845" transform="translate(-175.496 -57.171)"/>
    <path id="Path_846" d="M183.32 68.941l19.564-3.8.192 1.39-19.718 4.454z" class="cls-6" data-name="Path 846" transform="translate(-139.539 -55.373)"/>
    <path id="Path_847" d="M220.982 70.642a1.223 1.223 0 0 1 .494-1.082l.785 5.146a1.2 1.2 0 0 1-.549 1.186 1.153 1.153 0 0 1-.341-.741z" class="cls-7" data-name="Path 847" transform="translate(-179.42 -57.365)"/>
    <path id="Path_848" d="M112.132 153.982a7.239 7.239 0 0 1 1.939-10.26 34.362 34.362 0 0 1 3.664-2.148l.4-.181a56.572 56.572 0 0 1 12.358-3.938c6.943-1.829 13.693-3.263 13.693-3.263l.33-1.648L157.8 121.9c-.176 4.125-3.916 10.013-8.239 15.494L146.5 152.62h-25.267c2.653 5.361 6.833 13.731 8.942 17.241 3.224 5.41 5.2 8.118 5.2 8.118l-4.789 2.389-1.247-2.285z" class="cls-8" data-name="Path 848" transform="translate(-54.428 -80.957)"/>
    <path id="Path_849" d="M112.132 153.982a7.239 7.239 0 0 1 1.939-10.26 34.362 34.362 0 0 1 3.664-2.148l.4-.181a56.572 56.572 0 0 1 12.358-3.938c6.943-1.829 13.693-3.263 13.693-3.263l.33-1.648L157.8 121.9c-.176 4.125-3.916 10.013-8.239 15.494L146.5 152.62h-25.267c2.653 5.361 6.833 13.731 8.942 17.241l-4.345 3.339z" class="cls-9" data-name="Path 849" transform="translate(-54.428 -80.957)"/>
    <path id="Rectangle_641" d="M0 0h9.442v2.34H0z" class="cls-10" data-name="Rectangle 641" transform="rotate(148.55 25.93 61.673)"/>
    <path id="Path_850" d="M166.016 220.191v-.033l-11.633 7.459a.061.061 0 0 0-.027-.049l-.379-.659a3.164 3.164 0 0 1 1.1-4.268l9.049-5.641 1.889 3.2" class="cls-11" data-name="Path 850" transform="translate(-86.133 -123.823)"/>
    <path id="Path_851" d="M164.85 222.75v.033a1.576 1.576 0 0 1-.549 2.142l-9.337 5.69a1.285 1.285 0 0 1-1.752-.406z" class="cls-12" data-name="Path 851" transform="translate(-84.989 -126.415)"/>
    <path id="Path_852" d="M234.109 236a6.014 6.014 0 1 1-6.229 5.795 6.014 6.014 0 0 1 6.229-5.795zm-2.433 1.884a4.943 4.943 0 0 1 1.3 1.022c.588.654 1.324 1.994.994 2.933 1.34-.472 2.818-2.4 2.1-3.757a.467.467 0 0 1-.049-.247 4.7 4.7 0 0 0-4.345.046zm6.827 4.943a4.974 4.974 0 0 0 .071-.648 4.685 4.685 0 0 0-1.461-3.565 4.262 4.262 0 0 1-2.389 3.845 7.093 7.093 0 0 0 1.027.6 2.246 2.246 0 0 0 1.285.269 4.393 4.393 0 0 0 1.1-.478.445.445 0 0 1 .368-.033zm-2.911 3.515h.044a4.707 4.707 0 0 0 2.565-2.51 2.746 2.746 0 0 1-2.285.264 6.042 6.042 0 0 1-1.955-1.1c-.06 1.34.269 3.076 1.631 3.339zm-1.873.352a4.836 4.836 0 0 0 .549 0 4.2 4.2 0 0 1-.972-1.725 4.262 4.262 0 0 1-.165-2.1 6.326 6.326 0 0 0-1.417.445 2.8 2.8 0 0 0-1.318 1.845 4.7 4.7 0 0 0 3.323 1.527zm-4.032-2.62a3.927 3.927 0 0 1 3.686-2.126 4.262 4.262 0 0 1-.308-.851 4.427 4.427 0 0 0-.742-1.313 3.148 3.148 0 0 0-1.148-.912 3.3 3.3 0 0 0-.6-.17 4.652 4.652 0 0 0-1.368 3.136 4.57 4.57 0 0 0 .478 2.23z" class="cls-13" data-name="Path 852" transform="translate(-200.841 -132.385)"/>
    <path id="Path_853" d="M243.337 221.827l-.088-.434-24.832 5.2 21.349-13.7-.236-.373-21.492 13.786 13.973-21.371-.368-.242-13.885 21.237 5.41-24.782-.428-.093-5.6 25.639-5.7-26.133-.434.093 5.525 25.332-14.072-21.564-.368.242 13.874 21.262-20.795-13.589-.242.368 21.382 13.978-24.931-5.509-.093.434 24.793 5.476-24.837 5.2.088.434 24.826-5.2-21 13.479.242.373 21.141-13.57-13.439 20.556.368.242 13.347-20.416-5.286 24.218.434.093 5.174-23.717 5.13 23.513.434-.093-5.223-23.947 13.451 20.613.368-.242-13.814-21.168 21.339 13.948.242-.368-20.487-13.4 23.986 5.3.1-.434-24.475-5.4z" class="cls-14" data-name="Path 853" transform="translate(-184.149 -116.413)"/>
    <path id="Path_854" d="M86.119 223.416l-.055-.439-25.15 3.158 22.322-11.891-.209-.4-22.47 11.974 15.549-20.1-.352-.269-15.454 20.12 7.272-24.447-.419-.122-7.524 25.14-3.707-26.49-.439.06 3.592 25.678-12.4-22.569-.384.214 12.221 22.25-19.7-15.126-.269.346L58.8 226.064l-24.436-7.382-.132.423 24.31 7.343-25.161 3.3.055.439 25.15-3.3-21.965 11.848.214.39L58.942 227.2l-14.956 19.477.352.269L59.195 227.6l-7.107 23.74.428.126 6.954-23.25 3.33 23.833.439-.06-3.394-24.277L71.7 249.286l.384-.214L59.92 226.92l20.218 15.522.269-.352-19.416-14.906 23.519 7.1.126-.423-24-7.245z" class="cls-14" data-name="Path 854" transform="translate(59.773 -116.003)"/>
    <path id="Path_855" d="M28.54 225.392q-.033-.549-.049-1.1c-.659-.159-.9-.319-.9-.637s.242-.472.9-.632a10.383 10.383 0 0 1 .038-1.1c-.637-.209-.857-.384-.835-.7s.275-.45.934-.549c.038-.374.082-.742.132-1.1-.61-.258-.818-.45-.763-.758s.308-.428.961-.478c.071-.368.143-.736.225-1.1-.549-.3-.763-.511-.687-.813.1-.4.6-.4.934-.4h.055c.1-.363.2-.73.319-1.1-.549-.352-.714-.549-.61-.868s.505-.33.654-.33h.352c.132-.357.269-.714.412-1.06-.505-.39-.654-.626-.549-.912a.516.516 0 0 1 .549-.28 3.147 3.147 0 0 1 .489.055c.159-.346.324-.692.5-1.027-.467-.428-.593-.676-.445-.945a.478.478 0 0 1 .461-.236 2.514 2.514 0 0 1 .549.093c.187-.33.379-.659.582-.983-.428-.461-.549-.72-.363-.972a.467.467 0 0 1 .412-.2 2.065 2.065 0 0 1 .626.143c.214-.319.434-.626.665-.934-.384-.494-.467-.758-.28-1a.467.467 0 0 1 .373-.17 1.774 1.774 0 0 1 .659.2c.242-.3.489-.588.741-.879-.341-.522-.4-.785-.192-1.011a.445.445 0 0 1 .341-.143 1.576 1.576 0 0 1 .681.247c.187-.187.368-.379.549-.549l.253-.247c-.3-.549-.33-.813-.1-1.022a.417.417 0 0 1 .3-.115 1.406 1.406 0 0 1 .7.3c.291-.258.582-.505.879-.752-.247-.549-.258-.829 0-1.016a.423.423 0 0 1 .269-.093 1.269 1.269 0 0 1 .709.357c.308-.231.621-.461.939-.681-.2-.549-.181-.84.071-1.005a.456.456 0 0 1 .236-.071c.192 0 .39.121.709.406.33-.209.665-.406 1-.6-.143-.582-.11-.846.154-.989a.472.472 0 0 1 .209-.055c.2 0 .379.115.7.461.346-.181.7-.352 1.049-.516-.093-.593-.033-.846.236-.967a.39.39 0 0 1 .176-.038c.209 0 .39.126.7.516a23 23 0 0 1 1.1-.428c-.044-.593.033-.846.319-.939a.384.384 0 0 1 .137-.027c.22 0 .4.143.687.549.373-.121.747-.231 1.1-.335 0-.593.1-.835.4-.906h.1c.236 0 .406.143.67.626.384-.088.763-.165 1.153-.242.049-.588.17-.824.467-.868h.071c.258 0 .434.187.654.681.384-.055.774-.1 1.164-.143.1-.582.242-.807.549-.829h.033c.28 0 .445.2.632.736q.582-.044 1.17-.049c.154-.577.308-.785.61-.785s.456.209.6.785q.588 0 1.17.049c.187-.549.352-.736.632-.736h.033c.3 0 .439.247.549.84.384.038.774.088 1.159.148.22-.505.4-.7.659-.7h.066c.3.044.417.286.472.89.379.071.758.154 1.137.242.269-.5.439-.648.687-.648h.1c.291.071.39.324.39.939.373.1.741.22 1.1.341.3-.461.483-.61.709-.61a.412.412 0 0 1 .143.027c.286.1.363.363.308.989.357.132.714.275 1.066.428.324-.428.511-.549.73-.549a.39.39 0 0 1 .176.038c.286.121.335.4.225 1.033.335.165.676.335 1.011.511.352-.4.549-.549.752-.549a.384.384 0 0 1 .209.055c.275.148.3.428.132 1.071.319.192.637.384.95.588.357-.341.577-.478.78-.478a.428.428 0 0 1 .236.071c.269.176.269.461.033 1.1.3.209.6.423.89.648.373-.3.6-.428.8-.428a.44.44 0 0 1 .275.093c.253.2.225.489-.071 1.126.28.236.549.472.824.714a1.6 1.6 0 0 1 .807-.373.417.417 0 0 1 .3.115c.242.22.187.511-.17 1.131l.549.549.181.192a1.878 1.878 0 0 1 .807-.313.439.439 0 0 1 .335.143c.22.236.143.549-.269 1.126.236.269.467.549.692.818a2.12 2.12 0 0 1 .785-.253.467.467 0 0 1 .373.17c.2.258.1.549-.363 1.1q.324.428.626.873a2.411 2.411 0 0 1 .747-.187.478.478 0 0 1 .412.2c.181.275.055.549-.45 1.071.187.3.373.61.549.923a2.884 2.884 0 0 1 .692-.132.478.478 0 0 1 .461.242c.159.286 0 .549-.549 1.027.165.319.324.637.478.967a3.175 3.175 0 0 1 .6-.077.511.511 0 0 1 .549.28c.132.3-.033.549-.61.972v.044c.132.324.258.643.379.967a3.619 3.619 0 0 1 .45-.033c.148 0 .549 0 .654.33s-.077.549-.681.912c.11.346.22.7.313 1.044h.132c.335 0 .835 0 .934.39s-.121.549-.747.851c.082.357.159.709.231 1.1.7.044.967.159 1.022.478s-.165.511-.813.78c.055.357.1.72.137 1.1.687.1.945.242.972.549s-.209.494-.873.709c0 .363.038.731.044 1.1.681.159.928.319.928.637s-.247.483-.934.643a9.275 9.275 0 0 1-.044 1.1c.67.214.906.4.879.714s-.286.456-.978.549c-.038.368-.082.725-.132 1.1.643.269.862.461.813.78s-.324.434-1.011.478c-.066.363-.132.725-.214 1.1.6.313.8.522.725.829-.1.4-.6.4-.939.4h-.077c-.093.363-.2.725-.3 1.1.549.352.72.577.621.868s-.505.33-.654.33h-.346c-.126.363-.258.72-.4 1.1.494.379.637.615.511.9a.549.549 0 0 1-.549.28 3.188 3.188 0 0 1-.45-.049c-.159.357-.324.709-.494 1.06.434.406.549.643.4.906a.478.478 0 0 1-.461.236 2.227 2.227 0 0 1-.494-.077c-.192.352-.39.692-.6 1.033.379.423.461.665.3.906a.467.467 0 0 1-.412.2 1.8 1.8 0 0 1-.549-.11c-.225.335-.456.67-.692.994.319.434.379.676.2.9a.45.45 0 0 1-.373.17 1.445 1.445 0 0 1-.549-.143q-.384.478-.791.939c.275.45.313.692.121.9a.439.439 0 0 1-.335.143 1.335 1.335 0 0 1-.549-.187l-.225.236c-.214.214-.428.428-.648.637.236.461.253.709.044.9a.445.445 0 0 1-.3.115 1.186 1.186 0 0 1-.593-.236c-.308.269-.621.549-.945.785.2.494.2.741 0 .917a.434.434 0 0 1-.275.088 1.1 1.1 0 0 1-.632-.3c-.324.242-.654.472-.994.692.17.549.148.78-.088.939a.462.462 0 0 1-.242.071c-.181 0-.373-.11-.67-.379-.341.2-.687.4-1.033.593.143.549.1.824-.159.967a.434.434 0 0 1-.2.055c-.192 0-.379-.115-.709-.472-.346.17-.7.335-1.049.489.1.615.049.884-.231 1.005a.483.483 0 0 1-.176.038c-.22 0-.406-.137-.741-.549-.346.132-.7.264-1.055.384.06.665 0 .939-.308 1.038a.413.413 0 0 1-.143 0c-.236 0-.428-.159-.752-.681-.352.1-.7.2-1.06.291 0 .709-.077.989-.39 1.066h-.11c-.264 0-.445-.176-.758-.8-.346.071-.7.137-1.049.2-.044.747-.154 1.027-.483 1.1h-.066c-.3 0-.478-.236-.747-.9a33.32 33.32 0 0 1-1.038.121c-.1.763-.242 1.044-.549 1.071h-.005c-.319 0-.489-.258-.709-.978-.346 0-.687.027-1.033.033-.17.769-.33 1.044-.665 1.044s-.5-.275-.67-1.044a9.168 9.168 0 0 1-1.027-.038c-.225.725-.4.983-.714.983h-.033c-.335-.027-.472-.313-.549-1.1a30.638 30.638 0 0 1-1.027-.126c-.269.681-.456.923-.752.923h-.071c-.335-.055-.445-.352-.483-1.131a29.947 29.947 0 0 1-1.016-.214c-.335.67-.516.862-.791.862h-.1c-.33-.082-.412-.385-.39-1.17a20.986 20.986 0 0 1-.994-.291c-.373.6-.549.785-.824.785a.378.378 0 0 1-.137 0c-.324-.11-.379-.417-.291-1.192-.33-.121-.648-.247-.972-.373-.4.549-.6.714-.846.714a.483.483 0 0 1-.176-.038c-.308-.132-.341-.445-.187-1.208a37 37 0 0 1-.939-.456c-.423.494-.637.643-.862.643a.472.472 0 0 1-.209-.055c-.3-.159-.3-.472-.088-1.219-.3-.17-.6-.346-.9-.549-.417.4-.659.549-.879.549a.456.456 0 0 1-.236-.071c-.28-.187-.264-.494 0-1.219-.286-.192-.549-.4-.846-.6-.428.352-.67.489-.879.489a.428.428 0 0 1-.269-.088c-.264-.209-.225-.516.1-1.208-.269-.22-.549-.445-.8-.676a1.7 1.7 0 0 1-.868.417.445.445 0 0 1-.3-.115c-.247-.225-.181-.549.2-1.186a19.37 19.37 0 0 1-.747-.742 1.933 1.933 0 0 1-.846.341.45.45 0 0 1-.341-.143c-.225-.242-.137-.549.291-1.159-.231-.264-.461-.549-.681-.8a2.2 2.2 0 0 1-.818.269.45.45 0 0 1-.373-.176c-.2-.258-.093-.549.384-1.1-.214-.286-.423-.549-.626-.862a2.443 2.443 0 0 1-.769.2.467.467 0 0 1-.412-.2c-.181-.275-.049-.549.461-1.1-.187-.3-.368-.61-.549-.917a2.7 2.7 0 0 1-.7.132.483.483 0 0 1-.461-.236c-.159-.291 0-.549.549-1.033-.165-.319-.33-.637-.478-.961a3.9 3.9 0 0 1-.61.077.549.549 0 0 1-.549-.28c-.132-.3.038-.549.615-.978a42.06 42.06 0 0 1-.4-1.005c-.17 0-.324.033-.45.033s-.549 0-.654-.33.077-.549.681-.917a32.72 32.72 0 0 1-.313-1.038h-.132c-.33 0-.835 0-.934-.4-.082-.308.121-.522.747-.846q-.132-.549-.231-1.1c-.7-.044-.967-.159-1.016-.478s.159-.511.8-.774c-.055-.363-.1-.73-.143-1.1-.681-.1-.934-.242-.961-.549s.215-.526.863-.734zm28.86-26.716h-.231a24.769 24.769 0 0 0-.231 49.532h.214c13.182 0 24.4-11.194 24.519-24.447A24.709 24.709 0 0 0 57.4 198.676z" class="cls-15" data-name="Path 855" transform="translate(62.366 -113.497)"/>
    <path id="Path_856" d="M185.77 225.2q-.033-.549-.049-1.1c-.659-.159-.9-.319-.9-.632s.236-.478.9-.632a10.28 10.28 0 0 1 .038-1.1c-.637-.209-.862-.384-.835-.7s.275-.45.934-.549c.038-.374.082-.742.132-1.1-.61-.264-.818-.456-.769-.763s.313-.428.967-.472c.066-.374.143-.742.225-1.1-.549-.308-.763-.516-.692-.818.1-.4.6-.4.939-.4h.055q.148-.549.313-1.1c-.549-.346-.709-.549-.6-.862s.505-.33.654-.33h.352c.132-.357.269-.709.412-1.06-.505-.39-.654-.626-.549-.912a.549.549 0 0 1 .549-.28 3.147 3.147 0 0 1 .489.055c.159-.346.324-.687.494-1.027-.467-.428-.588-.676-.439-.945a.483.483 0 0 1 .461-.236 2.435 2.435 0 0 1 .549.093c.187-.33.385-.659.588-.983-.428-.461-.549-.714-.363-.972a.467.467 0 0 1 .412-.2 2.037 2.037 0 0 1 .621.143c.214-.313.439-.626.67-.934-.39-.494-.467-.752-.28-.994a.45.45 0 0 1 .373-.17 1.769 1.769 0 0 1 .659.192c.242-.3.489-.588.741-.879-.341-.549-.4-.785-.192-1.011a.461.461 0 0 1 .335-.143 1.527 1.527 0 0 1 .687.253c.181-.192.368-.384.549-.549l.269-.258c-.3-.549-.33-.813-.1-1.022a.445.445 0 0 1 .3-.115 1.444 1.444 0 0 1 .7.3c.286-.253.582-.505.879-.747-.247-.549-.258-.835 0-1.022a.434.434 0 0 1 .275-.088 1.247 1.247 0 0 1 .709.352q.461-.346.939-.676c-.2-.577-.181-.846.066-1.011a.461.461 0 0 1 .242-.071c.187 0 .39.121.709.412.33-.209.665-.412 1-.6-.148-.582-.11-.846.154-.989a.439.439 0 0 1 .209-.055c.192 0 .379.115.7.467.346-.181.7-.357 1.049-.549-.093-.588-.038-.846.236-.967a.484.484 0 0 1 .176-.038c.209 0 .39.126.692.516.363-.148.73-.291 1.1-.428-.049-.593.033-.846.313-.939a.413.413 0 0 1 .143 0c.22 0 .4.137.681.549.373-.121.752-.236 1.131-.341 0-.593.1-.835.39-.906h.11c.236 0 .406.148.67.626a25.64 25.64 0 0 1 1.148-.236c.055-.593.176-.824.472-.873h.066c.264 0 .434.181.654.681.39-.055.78-.1 1.17-.143.1-.588.242-.807.549-.835h.033c.28 0 .445.2.632.736l1.17-.049c.148-.549.308-.785.6-.785s.456.214.61.785l1.17.049c.187-.549.352-.736.632-.736h.033c.3.027.439.253.549.84.39.038.774.093 1.159.148.225-.505.4-.692.659-.692h.071c.3.049.417.286.472.89.379.071.758.154 1.137.242.269-.5.439-.648.681-.648h.1c.3.071.4.324.4.945.368.1.736.214 1.1.335.3-.461.483-.6.709-.6a.379.379 0 0 1 .137 0c.291.1.368.363.313.989a35 35 0 0 1 1.06.428c.33-.428.516-.549.736-.549a.483.483 0 0 1 .176.038c.28.126.335.4.22 1.038.341.159.681.33 1.011.505.357-.4.549-.522.758-.522a.472.472 0 0 1 .209.055c.275.148.3.434.126 1.1.324.187.643.379.956.582.357-.341.549-.478.78-.478a.456.456 0 0 1 .236.071c.269.176.264.467.033 1.1.3.209.6.428.89.648.373-.3.6-.423.8-.423a.429.429 0 0 1 .269.088c.258.2.225.489-.066 1.131q.412.346.824.709a1.6 1.6 0 0 1 .807-.374.445.445 0 0 1 .3.115c.236.22.187.511-.17 1.137q.291.28.549.577l.181.187a1.862 1.862 0 0 1 .8-.313.45.45 0 0 1 .341.143c.22.242.143.549-.269 1.1.236.269.467.549.692.818a2.054 2.054 0 0 1 .785-.247.45.45 0 0 1 .373.17c.2.258.093.549-.363 1.1.214.291.423.582.621.873a2.45 2.45 0 0 1 .747-.187.467.467 0 0 1 .417.2c.176.275.049.549-.45 1.066.187.308.368.615.549.923a2.817 2.817 0 0 1 .692-.126.483.483 0 0 1 .461.236c.154.291 0 .549-.549 1.027.165.319.33.643.478.967a3.766 3.766 0 0 1 .6-.077.549.549 0 0 1 .549.28c.132.3-.038.549-.615.978a.11.11 0 0 1 0 .044c.132.319.258.637.379.961.17 0 .324-.027.45-.027s.549 0 .654.33-.077.549-.681.912q.165.516.313 1.038h.132c.33 0 .835 0 .934.4s-.121.549-.747.846q.121.549.231 1.071c.7.044.967.159 1.016.478s-.165.511-.807.78c.055.363.093.725.132 1.1.692.1.95.242.978.549s-.209.494-.873.709c0 .368.038.73.044 1.1.681.159.928.319.928.643s-.247.478-.934.637c0 .368-.027.73-.044 1.1.67.22.906.4.879.714s-.286.461-.983.549c-.033.363-.077.725-.126 1.1.643.269.862.467.807.78s-.319.434-1.005.478c-.066.368-.137.725-.214 1.1.6.313.8.549.72.835s-.6.4-.934.39h-.077c-.093.363-.2.725-.308 1.1.549.352.725.577.621.873s-.5.33-.654.33a2.65 2.65 0 0 1-.346 0c-.126.363-.264.72-.4 1.1.494.384.632.615.511.9a.516.516 0 0 1-.549.28 2.538 2.538 0 0 1-.45-.049 31.19 31.19 0 0 1-.494 1.06c.434.406.549.643.4.906a.489.489 0 0 1-.461.242 1.989 1.989 0 0 1-.494-.082c-.192.352-.39.7-.6 1.038.379.417.461.659.3.9a.467.467 0 0 1-.412.2 1.768 1.768 0 0 1-.522-.11c-.225.341-.456.67-.7.994.324.434.384.681.209.906a.467.467 0 0 1-.373.17 1.5 1.5 0 0 1-.549-.148c-.253.324-.516.637-.785.945.275.445.313.692.121.9a.445.445 0 0 1-.341.143 1.378 1.378 0 0 1-.549-.187c-.071.082-.148.159-.22.236-.214.22-.428.428-.648.637.236.467.253.709.044.9a.417.417 0 0 1-.3.115 1.17 1.17 0 0 1-.593-.236c-.308.275-.626.549-.945.791.2.489.2.736 0 .912a.423.423 0 0 1-.269.093 1.137 1.137 0 0 1-.632-.3c-.324.236-.659.467-.994.692.17.549.148.774-.093.934a.456.456 0 0 1-.236.071 1.1 1.1 0 0 1-.67-.374c-.341.2-.687.4-1.033.588.137.549.1.829-.159.967a.412.412 0 0 1-.209.055c-.2 0-.384-.115-.709-.467-.346.17-.7.33-1.055.483.1.615.055.884-.225 1.005a.39.39 0 0 1-.176.038c-.22 0-.406-.137-.742-.549-.346.132-.7.264-1.06.384.066.665 0 .939-.308 1.044a.547.547 0 0 1-.137 0c-.242 0-.428-.165-.758-.681-.346.1-.7.2-1.055.286 0 .709-.082.989-.4 1.071h-.1c-.264 0-.445-.176-.758-.791-.346.071-.7.137-1.049.2-.044.742-.154 1.027-.483 1.1h-.071c-.291 0-.478-.236-.741-.9q-.516.066-1.038.115c-.1.763-.242 1.044-.577 1.071h-.033c-.319 0-.489-.258-.709-.978-.346 0-.692.033-1.033.038-.17.763-.33 1.038-.67 1.038s-.494-.275-.665-1.044a9.123 9.123 0 0 1-1.027-.038c-.225.725-.4.983-.714.983h-.033c-.341-.027-.472-.313-.582-1.1a22.261 22.261 0 0 1-1.022-.126c-.275.681-.456.928-.758.928h-.066c-.335-.06-.445-.352-.489-1.137-.341-.06-.676-.132-1.011-.209-.335.67-.549.857-.791.857h-.1c-.33-.088-.417-.39-.39-1.17-.335-.093-.67-.192-1-.3-.368.61-.549.791-.818.791a.6.6 0 0 1-.143 0c-.319-.11-.379-.423-.291-1.2-.324-.121-.648-.242-.967-.373-.4.549-.6.714-.846.714a.39.39 0 0 1-.176-.038c-.308-.132-.341-.445-.192-1.208-.313-.143-.626-.3-.934-.456-.428.494-.637.643-.862.643a.384.384 0 0 1-.209-.055c-.3-.159-.3-.472-.093-1.214l-.9-.549c-.412.406-.654.549-.873.549a.429.429 0 0 1-.236-.071c-.286-.181-.269-.494 0-1.214-.286-.2-.549-.4-.851-.61-.423.352-.665.494-.873.494a.439.439 0 0 1-.275-.093c-.264-.2-.22-.511.11-1.208-.275-.22-.549-.439-.8-.67a1.724 1.724 0 0 1-.868.412.417.417 0 0 1-.3-.115c-.247-.225-.181-.549.2-1.186q-.379-.363-.742-.742a1.922 1.922 0 0 1-.851.341.439.439 0 0 1-.335-.143c-.225-.242-.137-.549.291-1.159-.231-.258-.461-.549-.687-.8a2.2 2.2 0 0 1-.813.269.467.467 0 0 1-.373-.17c-.2-.264-.093-.549.379-1.1-.209-.28-.417-.549-.621-.857a2.515 2.515 0 0 1-.769.2.489.489 0 0 1-.412-.2c-.181-.28-.049-.549.461-1.1-.187-.3-.368-.6-.549-.917a2.8 2.8 0 0 1-.7.137.478.478 0 0 1-.461-.242c-.159-.286 0-.549.549-1.033a26.04 26.04 0 0 1-.478-.961 3.223 3.223 0 0 1-.6.077.516.516 0 0 1-.549-.28c-.132-.3.033-.549.615-.972-.143-.335-.275-.67-.4-1.005h-.45c-.126 0-.549 0-.654-.33s.077-.549.681-.912a32.3 32.3 0 0 1-.313-1.044h-.132c-.335 0-.835 0-.934-.39s.121-.549.742-.851a36.613 36.613 0 0 1-.231-1.066c-.692-.049-.961-.165-1.016-.483s.165-.505.8-.774c-.049-.363-.1-.725-.137-1.1-.681-.1-.934-.242-.961-.549s.202-.55.85-.767zm28.858-26.716h-.228a24.769 24.769 0 0 0-.236 49.532h.22c13.182 0 24.392-11.2 24.519-24.453a24.719 24.719 0 0 0-24.275-25.076z" class="cls-15" data-name="Path 856" transform="translate(-181.277 -113.406)"/>
    <path id="Path_857" d="M219.829 156.218a11.479 11.479 0 0 0-6.146 2.016 6.41 6.41 0 0 0-2.2 3.845c-1.005 4.982 2.68 8.881 5.4 12.594.225.3-.209.709-.434.4a51.4 51.4 0 0 1-4.586-6.679 9.93 9.93 0 0 1-.939-6.492 6.9 6.9 0 0 1 2.466-4.2 11.967 11.967 0 0 1 6.454-2.082c.379-.033.352.549 0 .588z" class="cls-15" data-name="Path 857" transform="translate(-171.643 -96.155)"/>
    <path id="Path_858" d="M214.866 173.99c-2.483-3.526-4.564-6.888-4.751-11.348-.148-3.548 2.268-6.042 5.256-7.53a.309.309 0 0 1 .28.549c-2.922 1.461-5.086 3.757-4.943 7.184a14.363 14.363 0 0 0 1.56 5.361 31.4 31.4 0 0 0 3.114 5.5c.22.313-.115.8-.33.494z" class="cls-15" data-name="Path 858" transform="translate(-166.982 -95.912)"/>
    <path id="Path_859" d="M204.231 149.859a2.4 2.4 0 0 1 1.192-1.477 1.9 1.9 0 0 1 2.587.961l6.316 1.225a2.2 2.2 0 0 1 1.719 2.636l-1.225 5.328-2.263-.84.549-4.883s-3.636-1.071-5.817-1.428c-.631.971-3.509.419-3.058-1.522z" class="cls-15" data-name="Path 859" transform="translate(-164.02 -92.79)"/>
    <path id="Path_860" d="M72.219 245.074h.093c.494 0 .5-.7.077-.818a4.779 4.779 0 0 1 .176-.494.4.4 0 0 0 .275.1c.494 0 .5-.7.077-.818.093-.154.2-.308.308-.456a.406.406 0 0 0 .363.214c.472 0 .5-.643.132-.8a5.8 5.8 0 0 1 .478-.428.417.417 0 0 0 .4.28.406.406 0 0 0 .247-.72c.143-.082.286-.159.428-.225a.423.423 0 0 0 .4.291.39.39 0 0 0 .346-.577 4.257 4.257 0 0 1 .456-.115.412.412 0 0 0 .417.368.379.379 0 0 0 .379-.472h.527a.434.434 0 0 0 .423.494.373.373 0 0 0 .384-.4l.352.088a.439.439 0 0 0 .406.582.357.357 0 0 0 .374-.308 4.4 4.4 0 0 1 .4.192.439.439 0 0 0 .3.752.357.357 0 0 0 .373-.319 4.837 4.837 0 0 1 .511.434.428.428 0 0 0 .176.813.352.352 0 0 0 .352-.22c.121.159.236.33.341.5a.434.434 0 0 0 .22.8.357.357 0 0 0 .159-.033 5.975 5.975 0 0 1 .209.626.423.423 0 0 0 .148.807 5.8 5.8 0 0 1 .033.621v.066c-.505 0-.5.725-.055.824a6.247 6.247 0 0 1-.126.549h-.049a.434.434 0 0 0-.4.439v.038a.406.406 0 0 0 .159.308 6.106 6.106 0 0 1-.335.621h-.1a.417.417 0 0 0-.4.434.363.363 0 0 0 .049.176 5.374 5.374 0 0 1-.456.478.412.412 0 0 0-.275-.1.4.4 0 0 0-.341.593 4.941 4.941 0 0 1-.593.352.406.406 0 0 0-.368-.22.384.384 0 0 0-.363.522 5.213 5.213 0 0 1-.873.22.439.439 0 0 0-.423-.5.4.4 0 0 0-.357.549h-.1a5.694 5.694 0 0 1-.692-.055.439.439 0 0 0-.4-.67.384.384 0 0 0-.368.522c-.165-.049-.33-.1-.483-.165a.483.483 0 0 0 .11-.3v-.038a.423.423 0 0 0-.439-.4.417.417 0 0 0-.39.4 6.183 6.183 0 0 1-.549-.357.434.434 0 0 0-.242-.791.363.363 0 0 0-.363.264 5.078 5.078 0 0 1-.363-.4.428.428 0 0 0 .176-.357v-.038a.417.417 0 0 0-.665-.313 6.287 6.287 0 0 1-.269-.6.428.428 0 0 0 .28-.412v-.049a.423.423 0 0 0-.439-.4.357.357 0 0 0-.11.027 5.123 5.123 0 0 1-.093-.505h.038a.429.429 0 1 0-.06-.857h-.062a5.687 5.687 0 0 1 .049-.614z" class="cls-13" data-name="Path 860" transform="translate(41.64 -134.371)"/>
    <path id="Path_861" d="M115.614 163.06s-4.449 12.16-4.784 13.215l1.675.4 5.075-13.248z" class="cls-13" data-name="Path 861" transform="translate(-14.228 -99.51)"/>
    <path id="Path_862" d="M223.059 231.453c1.769-3.7 4.323-10.7 7.739-20.943a14.829 14.829 0 0 1 2.614.78c-2.9 8.442-6.756 19.224-8.382 21.025-.669.736-2.405.044-1.971-.862z" class="cls-16" data-name="Path 862" transform="translate(-191.664 -120.898)"/>
    <path id="Path_863" d="M80.067 182.917s.225-.774.456-1.609a2.939 2.939 0 0 1 2.472-2.126l.549-.071L87.075 165l2.378.549-.225 1.62 44.391 12.243 1.368-3.186 2.477 1.044-.967 3.3s21.97 29.742 21.97 30.275 1.005 1.648-.709 1.774l-34.817.577s-9.211-7.733-12.391-11.139-23.47-23.244-23.47-23.244l-.725 1.587a4.191 4.191 0 0 1-2.312 2.181l-.417.159-.324 1.1zm76.346 28.149l-20.685-28.88c-.286 1.038-10.485 29.281-10.485 29.281zM101.394 187.1c1.648 1.5 21.7 23.557 21.7 23.557l10.007-29.11-44.059-12.384-1.269 5.41c0 .176 11.946 10.991 13.643 12.528z" class="cls-16" data-name="Path 863" transform="translate(-38.51 -100.384)"/>
    <path id="Path_864" d="M154.73 235.8l.72-.154a7.469 7.469 0 0 1 .121 1.011c-.226-.266-.616-.601-.841-.857z" class="cls-15" data-name="Path 864" transform="translate(-76.33 -132.23)"/>
    <path id="Path_865" d="M116.605 268.681l.088-.582-39.705-3.949-.088.582z" class="cls-13" data-name="Path 865" transform="translate(5.296 -145.076)"/>
    <path id="Path_866" d="M121.689 240.344l-.467-.78-33.285-2.664-.357.456z" class="cls-13" data-name="Path 866" transform="translate(-5.566 -132.793)"/>
    <path id="Path_867" d="M74.294 253.325a17.447 17.447 0 0 1 4.136-1.812 3.208 3.208 0 0 0-.236-.994 2.812 2.812 0 0 0-.549-.72c-.522-1.06.9-1.175 1.1-.637.1.275-.077.676 0 1.142a9.243 9.243 0 0 0 .313 1.159.8.8 0 0 1 .417.148c.434.368.994 1.186.088 1.785a11.38 11.38 0 0 1-3.74 1.549c.654.632 1.966 1.686 2.538 2.312.692.758 1.175 1.461 1.845 2.224a3.083 3.083 0 0 1 .384-.066.335.335 0 0 0 .308.17.3.3 0 0 0 .291-.17 1.547 1.547 0 0 1 .286.06.412.412 0 0 0-.06.335.385.385 0 0 0 .456.236l.071-.027a.225.225 0 0 0 .115-.055 2.262 2.262 0 0 1 .148.247l-.055.027a.378.378 0 0 0-.071.06.358.358 0 0 0 .258.626h.044a1.871 1.871 0 0 1 0 .3.368.368 0 0 0-.324.373.324.324 0 0 0 .115.236 1.587 1.587 0 0 1-.181.247.34.34 0 0 0-.187-.055.33.33 0 0 0-.324.428 1.366 1.366 0 0 1-.341.1.368.368 0 0 0-.363-.373.324.324 0 0 0-.33.368 2.069 2.069 0 0 1-.33-.093.373.373 0 0 0 .071-.236.368.368 0 0 0-.379-.341h-.038a.329.329 0 0 0-.269.148 1.6 1.6 0 0 1-.2-.324.363.363 0 0 0-.088-.714h-.077a1.472 1.472 0 0 1 .038-.341.384.384 0 0 0 .225.077c.417 0 .434-.549.1-.692a23.261 23.261 0 0 0-4.68-4.663c-.2-.159-.472-.17-.687-.324-.552-.506-.458-1.132.162-1.72z" class="cls-17" data-name="Path 867" transform="translate(41.323 -138.178)"/>
    <path id="Path_868" d="M218.55 204.98l2.625-7.14 2.181.6-2.7 7.135z" class="cls-13" data-name="Path 868" transform="translate(-179.169 -115.187)"/>
    <path id="Path_869" d="M147.771 251.581a1.845 1.845 0 1 0-1.851-1.845 1.846 1.846 0 0 0 1.851 1.845zm0-2.444a.6.6 0 1 1-.6.6.6.6 0 0 1 .6-.6z" class="cls-18" data-name="Path 869" transform="translate(-65.531 -137.747)"/>
    <path id="Path_870" d="M142.77 252.67a7.92 7.92 0 1 0-7.92-7.92 7.92 7.92 0 0 0 7.92 7.92zm0-14.594a6.673 6.673 0 1 1-6.673 6.673 6.673 6.673 0 0 1 6.673-6.672z" class="cls-18" data-name="Path 870" transform="translate(-60.531 -132.762)"/>
    <path id="Path_871" d="M97.053 159.481l18.2-1.911s3.515 5.855-4.125 8.535a4.256 4.256 0 0 1-4.619-1.51c-1.456-1.648-3.79-2.45-7.267-1.774a8.6 8.6 0 0 1-2.224.176c-1.541-.105-1.503-3.356.035-3.516z" class="cls-19" data-name="Path 871" transform="translate(-4.493 -97.035)"/>
    <path id="Path_872" d="M127.852 137.23l11.4 15.209-22.448 21.569c.549 5.295 1.988 19.844 2.669 24.914.835 6.245 1.587 9.508 1.587 9.508l-5.344.319-.247-2.6-8.195-29.934s-.126-.648-.2-1.565v-.038c-1.511-12.243 20.778-37.382 20.778-37.382z" class="cls-1" data-name="Path 872" transform="translate(-33.798 -87.867)"/>
    <path id="Path_873" d="M120.947 130.32a7.293 7.293 0 0 1 .549-.813c1.406-2.043 6.294-5.372 8.788-7.607 0 0 3.845 6.305 5.07 10.469s1.131 6.481-1.1 10.82a9.371 9.371 0 0 1-1.9 2.329l-22.448 21.569c.549 5.295 1.988 19.844 2.669 24.914l-5.806.643-6.393-23.349s-.126-.648-.2-1.565v-.038c-1.518-12.233 20.771-37.372 20.771-37.372z" class="cls-9" data-name="Path 873" transform="translate(-26.893 -80.957)"/>
    <path id="Path_874" d="M113.112 79.3c-1.736 1.983-4.246 15.379.06 16.725 18.241 5.74 25.018 18.5 25.018 18.5l12.892-12.625s-20.251-32.566-37.97-22.6z" class="cls-20" data-name="Path 874" transform="translate(-47.707 -60.902)"/>
    <path id="Path_875" d="M217.016 144.41l-2.356.89s-3.62-.835-4.751.044a2.746 2.746 0 0 0-1.1 2.131s.11.741.615.945 1.247-.467 1.247-.467l2.631-.472 1.587.516 2.911-1.708z" class="cls-1" data-name="Path 875" transform="translate(-168.264 -91.103)"/>
    <path id="Path_876" d="M182.016 85.792c-2.362 10.233-10.76 28.561-19.224 30.56l1.055 1.483s20.493-2.823 27.111-30.088a6.091 6.091 0 0 0-4.185-7.283c-3.351-1.005-3.994 1.901-4.757 5.328z" class="cls-1" data-name="Path 876" transform="translate(-116.32 -62.189)"/>
    <path id="Path_877" d="M169.167 85.792a74.731 74.731 0 0 1-6.415 16.708l6.163 4.306c3.724-4.394 7.14-10.535 9.216-19.059a6.091 6.091 0 0 0-4.185-7.283c-3.373-1.005-4.015 1.901-4.779 5.328z" class="cls-21" data-name="Path 877" transform="translate(-103.471 -62.189)"/>
    <path id="Path_878" d="M182.051 90.686l2.356-9.826-4.487 7.712z" class="cls-21" data-name="Path 878" transform="translate(-119.003 -62.458)"/>
    <path id="Rectangle_642" d="M0 0h9.442v2.34H0z" class="cls-10" data-name="Rectangle 642" transform="rotate(174.99 40.164 65.603)"/>
    <path id="Path_879" d="M153.381 268.957v-.033l-13.731 1.5v-.06l-.044-.758a3.169 3.169 0 0 1 2.862-3.345l10.666-1.011.247 3.707" class="cls-11" data-name="Path 879" transform="translate(-65.83 -145.572)"/>
    <path id="Path_880" d="M153.345 271.9v.055a1.576 1.576 0 0 1-1.439 1.681l-10.919.923a1.285 1.285 0 0 1-1.384-1.137z" class="cls-12" data-name="Path 880" transform="translate(-65.8 -148.569)"/>
    <path id="Path_881" d="M199.659 61.511l4.394-.373 13-9.337-12.88 4.5-5.267 3.422a1.016 1.016 0 0 0 .752 1.785z" class="cls-5" data-name="Path 881" transform="translate(-161.882 -49.36)"/>
    <path id="Path_882" d="M173.692 300.781c0 .687-34.185 1.241-76.346 1.241S21 301.473 21 300.781s34.185-1.241 76.346-1.241 76.346.555 76.346 1.241z" class="cls-22" data-name="Path 882" transform="translate(-21 -161.028)"/>
</svg>
