<svg xmlns="http://www.w3.org/2000/svg" width="742.125" height="609.625"><defs><style>.cls-1{fill:#f5f5f5}.cls-12,.cls-15,.cls-16,.cls-18,.cls-2,.cls-4{fill:none}.cls-2{stroke:rgba(77,22,174,.1)}.cls-3,.cls-5{fill:#fff}.cls-4,.cls-5{stroke-width:2px}.cls-4{stroke-linecap:round;stroke-linejoin:round;stroke:#4d16ae;opacity:.56}.cls-5{stroke:#e74e10;opacity:.59}.cls-6{opacity:.68}.cls-10,.cls-7,.cls-8,.cls-9{fill:url(#linear-gradient)}.cls-8{opacity:.5}.cls-9{opacity:.3}.cls-10{opacity:.2}.cls-11{fill:#ececec}.cls-12{stroke:#707070;opacity:.16}.cls-13{fill:#b098db}.cls-14{fill:#fcaa88}.cls-15{stroke:#a4a3f3;opacity:.7}.cls-16{stroke:#f9a785}.cls-17{stroke:none}.cls-19{filter:url(#Rectangle_1177-3)}.cls-20{filter:url(#Rectangle_1177-2)}.cls-21{filter:url(#Rectangle_1177)}</style><filter id="Rectangle_1177" width="297.315" height="231.738" x="0" y="35.562" filterUnits="userSpaceOnUse"><feOffset dy="4"/><feGaussianBlur result="blur" stdDeviation="5.5"/><feFlood flood-opacity=".161"/><feComposite in2="blur" operator="in"/><feComposite in="SourceGraphic"/></filter><linearGradient id="linear-gradient" x1=".5" x2=".5" y2="1" gradientUnits="objectBoundingBox"><stop offset="0" stop-color="#16a4fa" stop-opacity="0"/><stop offset=".314" stop-color="#438bf4"/><stop offset=".728" stop-color="#7b6bed"/><stop offset="1" stop-color="#9f56e8" stop-opacity="0"/></linearGradient><filter id="Rectangle_1177-2" width="302.067" height="195.311" x="87" y="292" filterUnits="userSpaceOnUse"><feOffset dy="4"/><feGaussianBlur result="blur-2" stdDeviation="5.5"/><feFlood flood-opacity=".161"/><feComposite in2="blur-2" operator="in"/><feComposite in="SourceGraphic"/></filter><filter id="Rectangle_1177-3" width="302.067" height="195.311" x="328" y="84" filterUnits="userSpaceOnUse"><feOffset dy="4"/><feGaussianBlur result="blur-3" stdDeviation="5.5"/><feFlood flood-opacity=".161"/><feComposite in2="blur-3" operator="in"/><feComposite in="SourceGraphic"/></filter></defs><g id="Group_1101" data-name="Group 1101" transform="translate(-788.5 -3940)"><rect id="Rectangle_1198" width="525.99" height="525.993" class="cls-1" data-name="Rectangle 1198" rx="262.995" transform="translate(963 3982)"/><g id="Ellipse_416" class="cls-2" data-name="Ellipse 416" transform="translate(921 3940)"><ellipse cx="304.812" cy="304.813" class="cls-17" rx="304.812" ry="304.813"/><ellipse cx="304.812" cy="304.813" class="cls-18" rx="304.312" ry="304.313"/></g><g id="Group_1076" data-name="Group 1076" transform="translate(42.059 60.562)"><g class="cls-21" transform="translate(746.44 3879.44)"><rect id="Rectangle_1177-4" width="264.315" height="198.738" class="cls-3" data-name="Rectangle 1177" rx="8" transform="translate(16.5 48.06)"/></g><g id="Group_1075" data-name="Group 1075" transform="translate(772.479 3930.285)"><path id="Union_1" d="M4.142 4.141L0 8.282l4.142-4.141L0 0l4.142 4.141L8.283 0 4.142 4.141l4.141 4.141z" class="cls-4" data-name="Union 1" transform="translate(51.155 54.472)"/><path id="Union_1-2" d="M4.142 4.141L0 8.282l4.142-4.141L0 0l4.142 4.141L8.283 0 4.142 4.141l4.141 4.141z" class="cls-4" data-name="Union 1" transform="translate(51.155 72.878)"/><path id="Union_1-3" d="M4.142 4.141L0 8.282l4.142-4.141L0 0l4.142 4.141L8.283 0 4.142 4.141l4.141 4.141z" class="cls-4" data-name="Union 1" transform="translate(51.155 91.285)"/><path id="Union_1-4" d="M4.142 4.141L0 8.282l4.142-4.141L0 0l4.142 4.141L8.283 0 4.142 4.141l4.141 4.141z" class="cls-4" data-name="Union 1" transform="translate(51.155 109.692)"/><path id="Union_1-5" d="M4.142 4.141L0 8.282l4.142-4.141L0 0l4.142 4.141L8.283 0 4.142 4.141l4.141 4.141z" class="cls-4" data-name="Union 1" transform="translate(51.155 128.098)"/><path id="Union_1-6" d="M4.142 4.141L0 8.282l4.142-4.141L0 0l4.142 4.141L8.283 0 4.142 4.141l4.141 4.141z" class="cls-4" data-name="Union 1" transform="translate(88.428 16.738)"/><path id="Union_1-7" d="M4.142 4.141L0 8.282l4.142-4.141L0 0l4.142 4.141L8.283 0 4.142 4.141l4.141 4.141z" class="cls-4" data-name="Union 1" transform="translate(88.428 35.145)"/><path id="Union_1-8" d="M4.142 4.141L0 8.282l4.142-4.141L0 0l4.142 4.141L8.283 0 4.142 4.141l4.141 4.141z" class="cls-4" data-name="Union 1" transform="translate(125.241 54.472)"/><path id="Union_1-9" d="M4.142 4.141L0 8.282l4.142-4.141L0 0l4.142 4.141L8.283 0 4.142 4.141l4.141 4.141z" class="cls-4" data-name="Union 1" transform="translate(125.241 72.878)"/><path id="Union_1-10" d="M4.142 4.141L0 8.282l4.142-4.141L0 0l4.142 4.141L8.283 0 4.142 4.141l4.141 4.141z" class="cls-4" data-name="Union 1" transform="translate(125.241 91.285)"/><path id="Union_1-11" d="M4.142 4.141L0 8.282l4.142-4.141L0 0l4.142 4.141L8.283 0 4.142 4.141l4.141 4.141z" class="cls-4" data-name="Union 1" transform="translate(162.515 36.065)"/><path id="Union_1-12" d="M4.142 4.141L0 8.282l4.142-4.141L0 0l4.142 4.141L8.283 0 4.142 4.141l4.141 4.141z" class="cls-4" data-name="Union 1" transform="translate(162.515 54.472)"/><path id="Union_1-13" d="M4.142 4.141L0 8.282l4.142-4.141L0 0l4.142 4.141L8.283 0 4.142 4.141l4.141 4.141z" class="cls-4" data-name="Union 1" transform="translate(162.515 72.878)"/><path id="Union_1-14" d="M4.142 4.141L0 8.282l4.142-4.141L0 0l4.142 4.141L8.283 0 4.142 4.141l4.141 4.141z" class="cls-4" data-name="Union 1" transform="translate(162.515 91.285)"/><path id="Union_1-15" d="M4.142 4.141L0 8.282l4.142-4.141L0 0l4.142 4.141L8.283 0 4.142 4.141l4.141 4.141z" class="cls-4" data-name="Union 1" transform="translate(162.515 109.692)"/><g id="Ellipse_414" class="cls-5" data-name="Ellipse 414" transform="translate(69.101 34.407)"><circle cx="4.832" cy="4.832" r="4.832" class="cls-17"/><circle cx="4.832" cy="4.832" r="3.832" class="cls-18"/></g><g id="Ellipse_414-2" class="cls-5" data-name="Ellipse 414" transform="translate(69.101 52.814)"><circle cx="4.832" cy="4.832" r="4.832" class="cls-17"/><circle cx="4.832" cy="4.832" r="3.832" class="cls-18"/></g><g id="Ellipse_414-3" class="cls-5" data-name="Ellipse 414" transform="translate(69.101 71.22)"><circle cx="4.832" cy="4.832" r="4.832" class="cls-17"/><circle cx="4.832" cy="4.832" r="3.832" class="cls-18"/></g><g id="Ellipse_414-4" class="cls-5" data-name="Ellipse 414" transform="translate(69.101 89.627)"><circle cx="4.832" cy="4.832" r="4.832" class="cls-17"/><circle cx="4.832" cy="4.832" r="3.832" class="cls-18"/></g><g id="Ellipse_414-5" class="cls-5" data-name="Ellipse 414" transform="translate(143.188 16.461)"><circle cx="4.832" cy="4.832" r="4.832" class="cls-17"/><circle cx="4.832" cy="4.832" r="3.832" class="cls-18"/></g><g id="Ellipse_414-6" class="cls-5" data-name="Ellipse 414" transform="translate(143.188 34.867)"><circle cx="4.832" cy="4.832" r="4.832" class="cls-17"/><circle cx="4.832" cy="4.832" r="3.832" class="cls-18"/></g><g id="Ellipse_414-7" class="cls-5" data-name="Ellipse 414" transform="translate(181.381 54.194)"><circle cx="4.832" cy="4.832" r="4.832" class="cls-17"/><circle cx="4.832" cy="4.832" r="3.832" class="cls-18"/></g><g id="Ellipse_414-8" class="cls-5" data-name="Ellipse 414" transform="translate(181.381 72.601)"><circle cx="4.832" cy="4.832" r="4.832" class="cls-17"/><circle cx="4.832" cy="4.832" r="3.832" class="cls-18"/></g><g id="Ellipse_414-9" class="cls-5" data-name="Ellipse 414" transform="translate(181.381 91.007)"><circle cx="4.832" cy="4.832" r="4.832" class="cls-17"/><circle cx="4.832" cy="4.832" r="3.832" class="cls-18"/></g><g id="Ellipse_414-10" class="cls-5" data-name="Ellipse 414" transform="translate(181.381 109.414)"><circle cx="4.832" cy="4.832" r="4.832" class="cls-17"/><circle cx="4.832" cy="4.832" r="3.832" class="cls-18"/></g><g id="Ellipse_414-11" class="cls-5" data-name="Ellipse 414" transform="translate(181.381 127.821)"><circle cx="4.832" cy="4.832" r="4.832" class="cls-17"/><circle cx="4.832" cy="4.832" r="3.832" class="cls-18"/></g><g id="Ellipse_414-12" class="cls-5" data-name="Ellipse 414" transform="translate(106.375 54.194)"><circle cx="4.832" cy="4.832" r="4.832" class="cls-17"/><circle cx="4.832" cy="4.832" r="3.832" class="cls-18"/></g><g id="Ellipse_414-13" class="cls-5" data-name="Ellipse 414" transform="translate(106.375 72.601)"><circle cx="4.832" cy="4.832" r="4.832" class="cls-17"/><circle cx="4.832" cy="4.832" r="3.832" class="cls-18"/></g><g id="Ellipse_414-14" class="cls-5" data-name="Ellipse 414" transform="translate(106.375 91.007)"><circle cx="4.832" cy="4.832" r="4.832" class="cls-17"/><circle cx="4.832" cy="4.832" r="3.832" class="cls-18"/></g><g id="Ellipse_414-15" class="cls-5" data-name="Ellipse 414" transform="translate(106.375 109.414)"><circle cx="4.832" cy="4.832" r="4.832" class="cls-17"/><circle cx="4.832" cy="4.832" r="3.832" class="cls-18"/></g><g id="Group_1073" class="cls-6" data-name="Group 1073" transform="translate(8.66)"><path id="Rectangle_1122" d="M0 0h.529v148.988H0z" class="cls-7" data-name="Rectangle 1122" transform="translate(34.357)"/><path id="Rectangle_1131" d="M0 0h.529v148.988H0z" class="cls-8" data-name="Rectangle 1131" transform="translate(15.857)"/><path id="Rectangle_1132" d="M0 0h.529v148.988H0z" class="cls-9" data-name="Rectangle 1132"/><path id="Rectangle_1133" d="M0 0h.529v148.988H0z" class="cls-8" data-name="Rectangle 1133" transform="translate(205.196)"/><path id="Rectangle_1134" d="M0 0h.529v148.988H0z" class="cls-9" data-name="Rectangle 1134" transform="translate(221.053)"/><path id="Rectangle_1123" d="M0 0h.529v148.988H0z" class="cls-7" data-name="Rectangle 1123" transform="translate(57.534)"/><path id="Rectangle_1124" d="M0 0h.529v148.988H0z" class="cls-7" data-name="Rectangle 1124" transform="translate(75.703)"/><path id="Rectangle_1125" d="M0 0h.529v148.988H0z" class="cls-7" data-name="Rectangle 1125" transform="translate(93.872)"/><path id="Rectangle_1126" d="M0 0h.529v148.988H0z" class="cls-7" data-name="Rectangle 1126" transform="translate(112.04)"/><path id="Rectangle_1127" d="M0 0h.529v148.988H0z" class="cls-7" data-name="Rectangle 1127" transform="translate(130.209)"/><path id="Rectangle_1128" d="M0 0h.529v148.988H0z" class="cls-7" data-name="Rectangle 1128" transform="translate(148.378)"/><path id="Rectangle_1129" d="M0 0h.529v148.988H0z" class="cls-7" data-name="Rectangle 1129" transform="translate(166.547)"/><path id="Rectangle_1130" d="M0 0h.529v148.988H0z" class="cls-7" data-name="Rectangle 1130" transform="translate(189.338)"/></g><g id="Group_1074" class="cls-6" data-name="Group 1074" transform="rotate(90 115.72 123.18)"><path id="Rectangle_1122-2" d="M0 0h.529v238.9H0z" class="cls-10" data-name="Rectangle 1122"/><path id="Rectangle_1123-2" d="M0 0h.529v238.9H0z" class="cls-8" data-name="Rectangle 1123" transform="translate(23.177)"/><path id="Rectangle_1124-2" d="M0 0h.529v238.9H0z" class="cls-7" data-name="Rectangle 1124" transform="translate(41.346)"/><path id="Rectangle_1125-2" d="M0 0h.529v238.9H0z" class="cls-7" data-name="Rectangle 1125" transform="translate(59.514)"/><path id="Rectangle_1126-2" d="M0 0h.529v238.9H0z" class="cls-7" data-name="Rectangle 1126" transform="translate(77.683)"/><path id="Rectangle_1127-2" d="M0 0h.529v238.9H0z" class="cls-7" data-name="Rectangle 1127" transform="translate(95.852)"/><path id="Rectangle_1128-2" d="M0 0h.529v238.9H0z" class="cls-8" data-name="Rectangle 1128" transform="translate(114.021)"/><path id="Rectangle_1129-2" d="M0 0h.529v238.9H0z" class="cls-10" data-name="Rectangle 1129" transform="translate(132.189)"/></g></g><rect id="Rectangle_1158" width="63.279" height="7.429" class="cls-11" data-name="Rectangle 1158" rx="3.714" transform="translate(776.336 4094.399)"/><rect id="Rectangle_1159" width="118.62" height="7.429" class="cls-11" data-name="Rectangle 1159" rx="3.714" transform="translate(775.5 4106.385)"/><path id="Line_218" d="M0 0h264.259" class="cls-12" data-name="Line 218" transform="translate(763.029 4083.521)"/></g><g id="Group_1077" data-name="Group 1077" transform="translate(-187 141)"><g class="cls-20" transform="translate(975.5 3799)"><rect id="Rectangle_1177-5" width="269.067" height="162.311" class="cls-3" data-name="Rectangle 1177" rx="8" transform="translate(103.5 304.5)"/></g><rect id="Rectangle_1158-2" width="91.416" height="7.563" class="cls-11" data-name="Rectangle 1158" rx="3.781" transform="translate(1092.636 4233.4)"/><rect id="Rectangle_1159-2" width="42.753" height="7.563" class="cls-11" data-name="Rectangle 1159" rx="3.781" transform="translate(1091.784 4245.601)"/><path id="Line_218-2" d="M0 0h269.009" class="cls-12" data-name="Line 218" transform="translate(1079.09 4222.326)"/><g id="Group_1078" class="cls-6" data-name="Group 1078" transform="translate(1087.198 4113.462)"><path id="Rectangle_1122-3" d="M0 0h.529v103.105H0z" class="cls-7" data-name="Rectangle 1122" transform="translate(38.801)"/><path id="Rectangle_1131-2" d="M0 0h.529v103.105H0z" class="cls-8" data-name="Rectangle 1131" transform="translate(19.801)"/><path id="Rectangle_1132-2" d="M0 0h.529v103.105H0z" class="cls-9" data-name="Rectangle 1132" transform="translate(-.198)"/><path id="Rectangle_1133-2" d="M0 0h.529v103.105H0z" class="cls-8" data-name="Rectangle 1133" transform="translate(231.802)"/><path id="Rectangle_1134-2" d="M0 0h.529v103.105H0z" class="cls-9" data-name="Rectangle 1134" transform="translate(250.801)"/><path id="Rectangle_1123-3" d="M0 0h.529v103.105H0z" class="cls-7" data-name="Rectangle 1123" transform="translate(57.802)"/><path id="Rectangle_1124-3" d="M0 0h.529v103.105H0z" class="cls-7" data-name="Rectangle 1124" transform="translate(76.802)"/><path id="Rectangle_1125-3" d="M0 0h.529v103.105H0z" class="cls-7" data-name="Rectangle 1125" transform="translate(96.802)"/><path id="Rectangle_1126-3" d="M0 0h.529v103.105H0z" class="cls-7" data-name="Rectangle 1126" transform="translate(115.801)"/><path id="Rectangle_1127-3" d="M0 0h.529v103.105H0z" class="cls-7" data-name="Rectangle 1127" transform="translate(134.802)"/><path id="Rectangle_1128-3" d="M0 0h.529v103.105H0z" class="cls-7" data-name="Rectangle 1128" transform="translate(154.802)"/><path id="Rectangle_1129-3" d="M0 0h.529v103.105H0z" class="cls-7" data-name="Rectangle 1129" transform="translate(173.802)"/><path id="Rectangle_1130-2" d="M0 0h.529v103.105H0z" class="cls-7" data-name="Rectangle 1130" transform="translate(212.802)"/><path id="Rectangle_1199" d="M0 0h.529v103.105H0z" class="cls-7" data-name="Rectangle 1199" transform="translate(192.801)"/></g><path id="Union_3" d="M-11011 4729a1.018 1.018 0 0 1-.5-.133 1.017 1.017 0 0 1-.5.133 1 1 0 0 1-1-1v-7h-17a1 1 0 0 1-1-1 1 1 0 0 1 1-1h18a1 1 0 0 1 1 1v7h17v-36a1 1 0 0 1 1-1h19a1 1 0 0 1 1 1v24h17v-43.052a1 1 0 0 1 1-.951h19.998a1 1 0 0 1 1 .951V4697h17v-19a1 1 0 0 1 1-1h19a1 1 0 0 1 1 1v11h20a1 1 0 0 1 1 1v31h16v-14a1 1 0 0 1 1-1h18v-17a1 1 0 0 1 1-1h20a1 1 0 0 1 1 1v17h17v-25a1 1 0 0 1 1-1h19a1 1 0 0 1 1 1v26a1 1 0 0 1-1 1 1 1 0 0 1-1-1v-25h-17v25a1 1 0 0 1-1 1h-19a1 1 0 0 1-1-1v-17h-18v17a1 1 0 0 1-1 1h-18v14a1 1 0 0 1-1 1h-18a1 1 0 0 1-1-1v-31h-20a1 1 0 0 1-1-1v-11h-17v19a1 1 0 0 1-1 1h-19a1 1 0 0 1-1-1v-25h-18v43a1 1 0 0 1-1 1h-19a1 1 0 0 1-1-1v-24h-17v36a1 1 0 0 1-1 1z" class="cls-13" data-name="Union 3" transform="translate(12118.999 -535)"/><rect id="Rectangle_1212" width="20" height="2" class="cls-14" data-name="Rectangle 1212" rx="1" transform="translate(1107 4192)"/><rect id="Rectangle_1213" width="20" height="2" class="cls-14" data-name="Rectangle 1213" rx="1" transform="translate(1242 4186)"/><rect id="Rectangle_1214" width="39" height="2" class="cls-14" data-name="Rectangle 1214" rx="1" transform="rotate(90 -1514 2641)"/><rect id="Rectangle_1215" width="10" height="2" class="cls-14" data-name="Rectangle 1215" rx="1" transform="rotate(90 -1538 2646)"/><rect id="Rectangle_1216" width="34" height="2" class="cls-14" data-name="Rectangle 1216" rx="1" transform="rotate(90 -1455 2699)"/><rect id="Rectangle_1217" width="17" height="2" class="cls-14" data-name="Rectangle 1217" rx="1" transform="rotate(90 -1454.5 2716.5)"/></g><g id="Group_1082" data-name="Group 1082"><g class="cls-19" transform="translate(788.5 3940)"><rect id="Rectangle_1177-6" width="269.067" height="162.311" class="cls-3" data-name="Rectangle 1177" rx="8" transform="translate(344.5 96.5)"/></g><path id="Line_218-3" d="M0 0h269.009" class="cls-12" data-name="Line 218" transform="translate(1133.09 4157.326)"/><g id="Group_1081" data-name="Group 1081" transform="translate(18 69)"><g id="Group_1078-2" class="cls-6" data-name="Group 1078" transform="translate(1123.198 3983.462)"><path id="Rectangle_1122-4" d="M0 0h.529v103.105H0z" class="cls-7" data-name="Rectangle 1122" transform="translate(38.801)"/><path id="Rectangle_1131-3" d="M0 0h.529v103.105H0z" class="cls-8" data-name="Rectangle 1131" transform="translate(19.801)"/><path id="Rectangle_1132-3" d="M0 0h.529v103.105H0z" class="cls-9" data-name="Rectangle 1132" transform="translate(-.198)"/><path id="Rectangle_1133-3" d="M0 0h.529v103.105H0z" class="cls-8" data-name="Rectangle 1133" transform="translate(231.802)"/><path id="Rectangle_1134-3" d="M0 0h.529v103.105H0z" class="cls-9" data-name="Rectangle 1134" transform="translate(250.801)"/><path id="Rectangle_1123-4" d="M0 0h.529v103.105H0z" class="cls-7" data-name="Rectangle 1123" transform="translate(57.802)"/><path id="Rectangle_1124-4" d="M0 0h.529v103.105H0z" class="cls-7" data-name="Rectangle 1124" transform="translate(76.802)"/><path id="Rectangle_1125-4" d="M0 0h.529v103.105H0z" class="cls-7" data-name="Rectangle 1125" transform="translate(96.802)"/><path id="Rectangle_1126-4" d="M0 0h.529v103.105H0z" class="cls-7" data-name="Rectangle 1126" transform="translate(115.801)"/><path id="Rectangle_1127-4" d="M0 0h.529v103.105H0z" class="cls-7" data-name="Rectangle 1127" transform="translate(134.802)"/><path id="Rectangle_1128-4" d="M0 0h.529v103.105H0z" class="cls-7" data-name="Rectangle 1128" transform="translate(154.802)"/><path id="Rectangle_1129-4" d="M0 0h.529v103.105H0z" class="cls-7" data-name="Rectangle 1129" transform="translate(173.802)"/><path id="Rectangle_1130-3" d="M0 0h.529v103.105H0z" class="cls-7" data-name="Rectangle 1130" transform="translate(212.802)"/><path id="Rectangle_1199-2" d="M0 0h.529v103.105H0z" class="cls-7" data-name="Rectangle 1199" transform="translate(192.801)"/></g><path id="Path_1562" d="M12141-639.3l5.127-16.522 4.687 20.874 3.313-16.57 2.486 10.439 3.479-17.729 2.982 17.729 3.646-12.262 3.811 12.262 3.812-23.695 3.479 22.369 2.485-12.593 4.474 17.4 3.479-14.913 2.816 10.107 5.137-18.558 4.143 23.363 4.309-15.741 2.982 10.936 3.646-16.4 2.485 12.593 2.485-9.607 2.65 10.932 6.131-16.073 4.806 21.662 4.143-15.7 2.816 8.782 2.32-20.215 2.982 13.918 2.65-18.889 2.817 10.439 3.313-18.558 4.64 20.712 1.657-12.593 2.982 16.4 2.485-11.433 4.474 17.729 1.657-10.107 3.811 13.918 2.154-26.511 3.148 13.918 3.646-13.918 1.822 8.782 2.485-13.753 4.64 20.55 1.657-6.8 4.64 20.215 3.645-11.764 4.806 19.221 3.646-11.267 2.816 21.043 2.154-15.907 1.325 17.232 2.32-9.776 2.485 9.776 3.313-17.232 3.314 9.942 3.313-21.375 2.485 14.913 4.64-27.174 2.319 18.558 4.475-14.747 3.479 21.662 2.816-13.211 3.479 17.564 2.651-11.267 4.309 9.61 2.65-19.883 2.817 10.273 2.987-7.953 2.816 14.868 3.148-21.662 3.812 11.433 3.479-16.9 4.8 18.723 3.314-22.369 1.988 11.268 2.816-10.108 3.148 6.3" class="cls-15" data-name="Path 1562" transform="translate(-11018 4671)"/><g id="Rectangle_1209" class="cls-16" data-name="Rectangle 1209" transform="translate(1148 3998)"><rect width="69" height="40" class="cls-17" rx="2"/><rect width="68" height="39" x=".5" y=".5" class="cls-18" rx="1.5"/></g><g id="Rectangle_1210" class="cls-16" data-name="Rectangle 1210" transform="translate(1244 3991)"><rect width="51" height="32" class="cls-17" rx="2"/><rect width="50" height="31" x=".5" y=".5" class="cls-18" rx="1.5"/></g></g><g id="Rectangle_1211" class="cls-16" data-name="Rectangle 1211" transform="translate(1290 4099.965)"><rect width="51" height="23" class="cls-17" rx="2"/><rect width="50" height="22" x=".5" y=".5" class="cls-18" rx="1.5"/></g><rect id="Rectangle_1158-3" width="64.416" height="7.563" class="cls-11" data-name="Rectangle 1158" rx="3.781" transform="translate(1147.636 4167.4)"/><rect id="Rectangle_1159-3" width="51.753" height="7.563" class="cls-11" data-name="Rectangle 1159" rx="3.781" transform="translate(1146.784 4179.601)"/></g></g></svg>