<svg xmlns="http://www.w3.org/2000/svg" width="118.057" height="158.612" viewBox="0 0 118.057 158.612">
    <defs>
        <style>
            .cls-1{fill:#010101;opacity:.1}.cls-1,.cls-10,.cls-9{fill-rule:evenodd}.cls-2{fill:#a8613e}.cls-3{fill:#804429}.cls-4{fill:#f6a311}.cls-5{fill:#fbba39}.cls-6{fill:#14508a}.cls-7{fill:#fbbf4e}.cls-8{fill:#f9eaec}.cls-9{fill:#494445}.cls-10{fill:#2b2523;opacity:.05}.cls-11{fill:#1c72b6}.cls-12{fill:#fff}.cls-13{fill:#c6c6c6}.cls-14{fill:#324150}.cls-15{fill:#9d9d9c}
        </style>
    </defs>
    <g id="Sport1" transform="translate(-57.23 -30.57)">
        <g id="Livello_1" data-name="Livello 1" transform="translate(57.23 30.57)">
            <path id="Path_810" d="M57.23 305.688c0 .712 26.212 1.288 58.561 1.288s58.561-.57 58.561-1.288-26.212-1.288-58.561-1.288-58.561.575-58.561 1.288z" class="cls-1" data-name="Path 810" transform="translate(-57.23 -148.364)"/>
            <path id="Path_811" d="M124.89 195.9c.171 1.607 9.442 20.514 9.442 20.514l-3.111 34.127h6.143l8.1-27.979a23.084 23.084 0 0 0-4.559-21.357l-3.351-3.989z" class="cls-2" data-name="Path 811" transform="translate(-86.335 -101.69)"/>
            <path id="Path_812" d="M152.008 93.65s16.833 20.012 41.415 8.547a3.231 3.231 0 0 1 2.541 2.279c.57 2.034-11.4 16.138-39.808 7.482-11.841-4.94-10.04-12.587-10.04-12.587z" class="cls-3" data-name="Path 812" transform="translate(-95.424 -57.705)"/>
            <path id="Path_813" d="M230.676 106.73c2.433-3.071 7.562-4.3 3.858-9.02 0 0-6.758 4.519-7.9 9.51z" class="cls-3" data-name="Path 813" transform="translate(-130.101 -59.452)"/>
            <path id="Path_814" d="M156.19 91.64a95.443 95.443 0 0 1 12.405 9.311s-7.18 10.325-7.978 11.9c-.41.8-7.322-5.083-9.037-7.026.42-.657 4.61-14.185 4.61-14.185z" class="cls-4" data-name="Path 814" transform="translate(-97.817 -56.841)"/>
            <path id="Path_815" d="M142.8 76.706l5.727-12.166 2.923 1.88-.433 13.687z" class="cls-3" data-name="Path 815" transform="translate(-94.04 -45.183)"/>
            <circle id="Ellipse_204" cx="11.511" cy="11.511" r="11.511" class="cls-2" data-name="Ellipse 204" transform="translate(47.826 2.029)"/>
            <rect id="Rectangle_640" width="5.647" height="2.923" class="cls-2" data-name="Rectangle 640" rx="1.462" transform="translate(68.01 11.554)"/>
            <path id="Path_816" d="M144.448 53.67a11.156 11.156 0 1 1 15.079-16.447" class="cls-5" data-name="Path 816" transform="translate(-93.192 -32.17)"/>
            <circle id="Ellipse_205" cx="3.539" cy="3.539" r="3.539" class="cls-2" data-name="Ellipse 205" transform="translate(54.014 10.872)"/>
            <circle id="Ellipse_206" cx="4.325" cy="4.325" r="4.325" class="cls-5" data-name="Ellipse 206" transform="translate(45.307 10.086)"/>
            <circle id="Ellipse_207" cx="2.576" cy="2.576" r="2.576" class="cls-5" data-name="Ellipse 207" transform="translate(47.974 16.781)"/>
            <circle id="Ellipse_208" cx="3.447" cy="3.447" r="3.447" class="cls-5" data-name="Ellipse 208" transform="translate(45.313 7.425)"/>
            <circle id="Ellipse_209" cx="3.447" cy="3.447" r="3.447" class="cls-5" data-name="Ellipse 209" transform="translate(47.979 2.929)"/>
            <circle id="Ellipse_210" cx="2.029" cy="2.029" r="2.029" class="cls-5" data-name="Ellipse 210" transform="translate(52.276 1.464)"/>
            <circle id="Ellipse_211" cx="3.493" cy="3.493" r="3.493" class="cls-5" data-name="Ellipse 211" transform="translate(55.347)"/>
            <circle id="Ellipse_212" cx="1.955" cy="1.955" r="1.955" class="cls-5" data-name="Ellipse 212" transform="translate(60.761 .969)"/>
            <circle id="Ellipse_213" cx="1.955" cy="1.955" r="1.955" class="cls-5" data-name="Ellipse 213" transform="translate(63.467 2.923)"/>
            <path id="Path_817" d="M156.514 168.35l16.172 10.32a27.084 27.084 0 0 1 8.98 9.607l15.049 27.1-6.393 3.738-22.542-30.844-19.42-8.2z" class="cls-2" data-name="Path 817" transform="translate(-96.432 -89.839)"/>
            <path id="Path_818" d="M122.285 193.886l15.807-5.032-8.741-25.785-17.921 5.351z" class="cls-6" data-name="Path 818" transform="translate(-80.545 -87.568)"/>
            <path id="Path_819" d="M116.955 78.645c3.9-.519 12.872-1.174 16.1 1.487 5.776 4.768 12.711 10.068 12.335 16.086-.712 11.4-6.223 39.255-6.223 39.255l-25.927-10.621 4.69-35.13z" class="cls-7" data-name="Path 819" transform="translate(-81.324 -51.048)"/>
            <circle id="Ellipse_214" cx="9.909" cy="9.909" r="9.909" class="cls-8" data-name="Ellipse 214" transform="translate(98.238 95.834)"/>
            <path id="Path_820" d="M241.973 216.658l-1.373-4.222 3.6-2.615 3.6 2.615-1.373 4.222z" class="cls-9" data-name="Path 820" transform="translate(-136.111 -107.678)"/>
            <path id="Path_821" d="M246.54 199.64c.456.49.883.992 1.288 1.51a22.759 22.759 0 0 0-3.727.53 22.683 22.683 0 0 0-3.721-.53c.4-.519.826-1.02 1.288-1.51a24.855 24.855 0 0 1 4.872 0z" class="cls-9" data-name="Path 821" transform="translate(-136.016 -103.248)"/>
            <path id="Path_822" d="M231.574 206.478c.61-.279 1.225-.536 1.835-.758a23.528 23.528 0 0 0-.644 3.71 22.613 22.613 0 0 0-1.658 3.373c-.365-.57-.712-1.105-1.037-1.709a25.423 25.423 0 0 1 1.5-4.616z" class="cls-9" data-name="Path 822" transform="translate(-131.581 -105.915)"/>
            <path id="Path_823" d="M234.16 225.227a21.74 21.74 0 0 1-.16-1.977 22.46 22.46 0 0 0 3.328 1.755 22.224 22.224 0 0 0 2.7 2.621c-.627.182-1.271.336-1.932.467a24.922 24.922 0 0 1-3.936-2.866z" class="cls-9" data-name="Path 823" transform="translate(-133.272 -113.456)"/>
            <path id="Path_824" d="M251.462 228.164c-.661-.131-1.3-.285-1.932-.467a22.18 22.18 0 0 0 2.7-2.616 22.749 22.749 0 0 0 3.328-1.761 16.778 16.778 0 0 1-.154 1.977 25.238 25.238 0 0 1-3.942 2.867z" class="cls-9" data-name="Path 824" transform="translate(-139.952 -113.486)"/>
            <path id="Path_825" d="M261.235 210.943q-.5.878-1.043 1.709a22.4 22.4 0 0 0-1.658-3.379 22.221 22.221 0 0 0-.644-3.7 21.86 21.86 0 0 1 1.835.758 25.006 25.006 0 0 1 1.51 4.612z" class="cls-9" data-name="Path 825" transform="translate(-143.548 -105.85)"/>
            <path id="Path_826" d="M247.818 203a11.59 11.59 0 0 1-11.277 14.291 11.4 11.4 0 0 1-2.7-.319A9.909 9.909 0 1 0 247.818 203z" class="cls-10" data-name="Path 826" transform="translate(-133.203 -104.745)"/>
            <path id="Path_827" d="M112.76 146.17a18.417 18.417 0 0 0 5.835 25.021l25.107 5.915 4.928-14.506z" class="cls-11" data-name="Path 827" transform="translate(-79.977 -80.298)"/>
            <path id="Path_828" d="M110.338 93.143s-20.514 10.1-16.491 33.386a2.467 2.467 0 0 1-2.427 1.371c-1.778-.131-13.807-16.422 2.519-34.5 6.587-8.206 12.422-4.559 12.422-4.559z" class="cls-2" data-name="Path 828" transform="translate(-69.385 -55.289)"/>
            <path id="Path_829" d="M93.05 152.122c2.12 2.809 1.436 7.59 7.47 5.288 0 0-1.926-6.923-6.433-8.98z" class="cls-2" data-name="Path 829" transform="translate(-72.639 -81.27)"/>
            <path id="Path_830" d="M119.54 77.413c10.223.308 5.59 10.639 5.59 10.639-4.1 5.7-10.644 10.827-14.816 10.981-5.06-.8-8.126-11.442-7.231-15.271 3.417-3.862 10.189-6.537 16.457-6.349z" class="cls-7" data-name="Path 830" transform="translate(-76.888 -50.717)"/>
            <path id="Path_831" d="M107.517 83.8s-1.909 9.072 7.345 17.186l2.559-1.105s-6.382-4.257-8.918-16.787z" class="cls-12" data-name="Path 831" transform="translate(-78.792 -53.163)"/>
            <path id="Path_832" d="M136.01 277.577l1.715-18.827h9.886l-5.459 18.827z" class="cls-13" data-name="Path 832" transform="translate(-91.119 -128.727)"/>
            <path id="Path_833" d="M212.6 242.037l-10.76-15.647 8.69-4.57 9.191 16.553z" class="cls-13" data-name="Path 833" transform="translate(-119.437 -112.84)"/>
            <path id="Path_834" d="M135.14 294.641v-.051l20.947 1.915a.572.572 0 0 0 0-.091l.051-1.14a4.826 4.826 0 0 0-4.45-5.015L135.442 289l-.3 5.658" class="cls-14" data-name="Path 834" transform="translate(-90.745 -141.739)"/>
            <path id="Path_835" d="M135.137 298.81v.051a2.4 2.4 0 0 0 2.234 2.524l16.639 1.14a1.954 1.954 0 0 0 2.074-1.778z" class="cls-15" data-name="Path 835" transform="translate(-90.742 -145.959)"/>
            <circle id="Ellipse_215" cx=".821" cy=".821" r=".821" class="cls-15" data-name="Ellipse 215" transform="translate(45.581 154.343)"/>
            <circle id="Ellipse_216" cx=".821" cy=".821" r=".821" class="cls-15" data-name="Ellipse 216" transform="translate(47.655 154.589)"/>
            <circle id="Ellipse_217" cx=".821" cy=".821" r=".821" class="cls-15" data-name="Ellipse 217" transform="translate(49.746 154.759)"/>
            <circle id="Ellipse_218" cx=".821" cy=".821" r=".821" class="cls-15" data-name="Ellipse 218" transform="translate(52.008 155.005)"/>
            <circle id="Ellipse_219" cx=".821" cy=".821" r=".821" class="cls-15" data-name="Ellipse 219" transform="translate(54.498 155.164)"/>
            <circle id="Ellipse_220" cx=".821" cy=".821" r=".821" class="cls-15" data-name="Ellipse 220" transform="translate(56.931 155.307)"/>
            <circle id="Ellipse_221" cx=".821" cy=".821" r=".821" class="cls-15" data-name="Ellipse 221" transform="translate(59.387 155.409)"/>
            <circle id="Ellipse_222" cx=".821" cy=".821" r=".821" class="cls-15" data-name="Ellipse 222" transform="translate(61.798 155.58)"/>
            <path id="Path_836" d="M220.667 254.961v-.051l19.233-8.51a.114.114 0 0 0-.04-.085l-.519-1.037a4.832 4.832 0 0 0-6.331-2.222L218.2 249.9l2.49 5.094" class="cls-14" data-name="Path 836" transform="translate(-126.475 -121.787)"/>
            <path id="Path_837" d="M222.49 257.785v.051a2.4 2.4 0 0 0 3.18 1.14l15.083-7.117a1.955 1.955 0 0 0 .952-2.559z" class="cls-15" data-name="Path 837" transform="translate(-128.32 -124.662)"/>
            <circle id="Ellipse_223" cx=".821" cy=".821" r=".821" class="cls-15" data-name="Ellipse 223" transform="translate(96.221 133.357)"/>
            <circle id="Ellipse_224" cx=".821" cy=".821" r=".821" class="cls-15" data-name="Ellipse 224" transform="translate(98.159 132.559)"/>
            <circle id="Ellipse_225" cx=".821" cy=".821" r=".821" class="cls-15" data-name="Ellipse 225" transform="translate(100.067 131.693)"/>
            <circle id="Ellipse_226" cx=".821" cy=".821" r=".821" class="cls-15" data-name="Ellipse 226" transform="translate(102.164 130.804)"/>
            <circle id="Ellipse_227" cx=".821" cy=".821" r=".821" class="cls-15" data-name="Ellipse 227" transform="translate(104.415 129.733)"/>
            <circle id="Ellipse_228" cx=".821" cy=".821" r=".821" class="cls-15" data-name="Ellipse 228" transform="translate(106.615 128.678)"/>
            <circle id="Ellipse_229" cx=".821" cy=".821" r=".821" class="cls-15" data-name="Ellipse 229" transform="translate(108.809 127.567)"/>
            <circle id="Ellipse_230" cx=".821" cy=".821" r=".821" class="cls-15" data-name="Ellipse 230" transform="translate(110.997 126.547)"/>
        </g>
    </g>
</svg>
