<svg xmlns="http://www.w3.org/2000/svg" width="782.701" height="695.625"><defs><style>.cls-1{fill:#f5f5f5}.cls-11,.cls-17,.cls-2,.cls-20{fill:none}.cls-2{stroke:rgba(77,22,174,.1)}.cls-3{fill:#fff}.cls-4{opacity:.68}.cls-12,.cls-5,.cls-6,.cls-7{fill:url(#linear-gradient)}.cls-6{opacity:.5}.cls-7{opacity:.3}.cls-18,.cls-8{fill:url(#linear-gradient-14)}.cls-9{fill:url(#linear-gradient-15)}.cls-10{fill:#ececec}.cls-11{stroke:#707070;opacity:.16}.cls-12{opacity:.21}.cls-13{fill:url(#linear-gradient-35)}.cls-14{fill:url(#linear-gradient-36)}.cls-15{fill:#c4a9f3;stroke:rgba(255,255,255,.55);stroke-width:4px}.cls-16{opacity:.18}.cls-17{stroke:#ba9af1}.cls-18{opacity:.56}.cls-19{stroke:none}.cls-21{filter:url(#Rectangle_1175)}.cls-22{filter:url(#Rectangle_1170)}.cls-23{filter:url(#Rectangle_1169)}.cls-24{filter:url(#Rectangle_1168)}.cls-25{filter:url(#Rectangle_1165)}.cls-26{filter:url(#Rectangle_1157-2)}.cls-27{filter:url(#Rectangle_1154)}.cls-28{filter:url(#Rectangle_1121)}.cls-29{filter:url(#Rectangle_1120)}.cls-30{filter:url(#Rectangle_1119)}.cls-31{filter:url(#Rectangle_1118)}.cls-32{filter:url(#Rectangle_1117)}.cls-33{filter:url(#Rectangle_1116)}.cls-34{filter:url(#Rectangle_1115)}.cls-35{filter:url(#Rectangle_1114)}.cls-36{filter:url(#Rectangle_1113)}.cls-37{filter:url(#Rectangle_1157)}</style><filter id="Rectangle_1157" width="255.107" height="228.525" x="306.834" y="395.975" filterUnits="userSpaceOnUse"><feOffset dy="4"/><feGaussianBlur result="blur" stdDeviation="5.5"/><feFlood flood-opacity=".161"/><feComposite in2="blur" operator="in"/><feComposite in="SourceGraphic"/></filter><linearGradient id="linear-gradient" x1=".5" x2=".5" y2="1" gradientUnits="objectBoundingBox"><stop offset="0" stop-color="#16a4fa" stop-opacity="0"/><stop offset=".314" stop-color="#438bf4"/><stop offset=".728" stop-color="#7b6bed"/><stop offset="1" stop-color="#9f56e8" stop-opacity="0"/></linearGradient><linearGradient id="linear-gradient-14" x1=".5" x2=".5" y2="1" gradientUnits="objectBoundingBox"><stop offset="0" stop-color="#d09ce9"/><stop offset="1" stop-color="#3f43bf"/></linearGradient><filter id="Rectangle_1113" width="12.174" height="69.985" x="364.329" y="489.106" filterUnits="userSpaceOnUse"><feOffset dx="2" dy="3"/><feGaussianBlur result="blur-2" stdDeviation="1"/><feFlood flood-opacity=".161"/><feComposite in2="blur-2" operator="in"/><feComposite in="SourceGraphic"/></filter><linearGradient id="linear-gradient-15" x1=".5" x2=".5" y1="1.283" y2=".042" gradientUnits="objectBoundingBox"><stop offset="0" stop-color="#f26353"/><stop offset="1" stop-color="#ffab61"/></linearGradient><filter id="Rectangle_1114" width="12.174" height="69.985" x="381.139" y="508.57" filterUnits="userSpaceOnUse"><feOffset dx="2" dy="3"/><feGaussianBlur result="blur-3" stdDeviation="1"/><feFlood flood-opacity=".161"/><feComposite in2="blur-3" operator="in"/><feComposite in="SourceGraphic"/></filter><filter id="Rectangle_1115" width="12.174" height="69.985" x="397.949" y="474.508" filterUnits="userSpaceOnUse"><feOffset dx="2" dy="3"/><feGaussianBlur result="blur-4" stdDeviation="1"/><feFlood flood-opacity=".161"/><feComposite in2="blur-4" operator="in"/><feComposite in="SourceGraphic"/></filter><filter id="Rectangle_1116" width="12.174" height="69.985" x="414.759" y="493.972" filterUnits="userSpaceOnUse"><feOffset dx="2" dy="3"/><feGaussianBlur result="blur-5" stdDeviation="1"/><feFlood flood-opacity=".161"/><feComposite in2="blur-5" operator="in"/><feComposite in="SourceGraphic"/></filter><filter id="Rectangle_1117" width="12.174" height="69.985" x="431.568" y="517.418" filterUnits="userSpaceOnUse"><feOffset dx="2" dy="3"/><feGaussianBlur result="blur-6" stdDeviation="1"/><feFlood flood-opacity=".161"/><feComposite in2="blur-6" operator="in"/><feComposite in="SourceGraphic"/></filter><filter id="Rectangle_1118" width="12.174" height="69.985" x="448.379" y="476.278" filterUnits="userSpaceOnUse"><feOffset dx="2" dy="3"/><feGaussianBlur result="blur-7" stdDeviation="1"/><feFlood flood-opacity=".161"/><feComposite in2="blur-7" operator="in"/><feComposite in="SourceGraphic"/></filter><filter id="Rectangle_1119" width="12.174" height="69.985" x="465.188" y="493.972" filterUnits="userSpaceOnUse"><feOffset dx="2" dy="3"/><feGaussianBlur result="blur-8" stdDeviation="1"/><feFlood flood-opacity=".161"/><feComposite in2="blur-8" operator="in"/><feComposite in="SourceGraphic"/></filter><filter id="Rectangle_1120" width="12.174" height="69.985" x="481.998" y="528.477" filterUnits="userSpaceOnUse"><feOffset dx="2" dy="3"/><feGaussianBlur result="blur-9" stdDeviation="1"/><feFlood flood-opacity=".161"/><feComposite in2="blur-9" operator="in"/><feComposite in="SourceGraphic"/></filter><filter id="Rectangle_1121" width="12.174" height="69.985" x="498.809" y="471.854" filterUnits="userSpaceOnUse"><feOffset dx="2" dy="3"/><feGaussianBlur result="blur-10" stdDeviation="1"/><feFlood flood-opacity=".161"/><feComposite in2="blur-10" operator="in"/><feComposite in="SourceGraphic"/></filter><filter id="Rectangle_1154" width="269.166" height="240.901" x="263.577" y="112.505" filterUnits="userSpaceOnUse"><feOffset dy="4"/><feGaussianBlur result="blur-11" stdDeviation="5.5"/><feFlood flood-opacity=".161"/><feComposite in2="blur-11" operator="in"/><feComposite in="SourceGraphic"/></filter><linearGradient id="linear-gradient-35" x1=".5" x2=".5" y2="1" gradientUnits="objectBoundingBox"><stop offset="0" stop-color="#ffd2c4"/><stop offset="1" stop-color="#f6896d" stop-opacity="0"/></linearGradient><linearGradient id="linear-gradient-36" x1=".5" x2=".5" y1="-.786" y2="1" gradientUnits="objectBoundingBox"><stop offset="0" stop-color="#b29ff3"/><stop offset="1" stop-color="#9016fa" stop-opacity="0"/></linearGradient><filter id="Rectangle_1157-2" width="220.255" height="180.844" x="562.446" y="261.309" filterUnits="userSpaceOnUse"><feOffset dy="4"/><feGaussianBlur result="blur-12" stdDeviation="5.5"/><feFlood flood-opacity=".161"/><feComposite in2="blur-12" operator="in"/><feComposite in="SourceGraphic"/></filter><filter id="Rectangle_1165" width="12.6" height="63.749" x="643.945" y="337.501" filterUnits="userSpaceOnUse"><feOffset dx="2" dy="3"/><feGaussianBlur result="blur-13" stdDeviation="1"/><feFlood flood-opacity=".161"/><feComposite in2="blur-13" operator="in"/><feComposite in="SourceGraphic"/></filter><filter id="Rectangle_1168" width="12.6" height="24.15" x="673.645" y="329.251" filterUnits="userSpaceOnUse"><feOffset dx="2" dy="3"/><feGaussianBlur result="blur-14" stdDeviation="1"/><feFlood flood-opacity=".161"/><feComposite in2="blur-14" operator="in"/><feComposite in="SourceGraphic"/></filter><filter id="Rectangle_1169" width="12.6" height="28.275" x="683.545" y="347.401" filterUnits="userSpaceOnUse"><feOffset dx="2" dy="3"/><feGaussianBlur result="blur-15" stdDeviation="1"/><feFlood flood-opacity=".161"/><feComposite in2="blur-15" operator="in"/><feComposite in="SourceGraphic"/></filter><filter id="Rectangle_1170" width="12.6" height="40.649" x="693.444" y="369.675" filterUnits="userSpaceOnUse"><feOffset dx="2" dy="3"/><feGaussianBlur result="blur-16" stdDeviation="1"/><feFlood flood-opacity=".161"/><feComposite in2="blur-16" operator="in"/><feComposite in="SourceGraphic"/></filter><filter id="Rectangle_1175" width="12.6" height="25.8" x="742.943" y="331.726" filterUnits="userSpaceOnUse"><feOffset dx="2" dy="3"/><feGaussianBlur result="blur-17" stdDeviation="1"/><feFlood flood-opacity=".161"/><feComposite in2="blur-17" operator="in"/><feComposite in="SourceGraphic"/></filter></defs><g id="Group_1100" data-name="Group 1100" transform="translate(207 -3334)"><rect id="Rectangle_1176" width="617.99" height="617.993" class="cls-1" data-name="Rectangle 1176" rx="308.995" transform="translate(-168 3373)"/><g id="Ellipse_415" class="cls-2" data-name="Ellipse 415" transform="translate(-207 3334)"><ellipse cx="347.812" cy="347.813" class="cls-19" rx="347.812" ry="347.813"/><ellipse cx="347.812" cy="347.813" class="cls-20" rx="347.312" ry="347.313"/></g><g id="Group_1070" data-name="Group 1070" transform="translate(116.334 3742.475)"><g class="cls-37" transform="translate(-323.33 -408.47)"><rect id="Rectangle_1157-3" width="222.107" height="195.525" class="cls-3" data-name="Rectangle 1157" rx="8" transform="translate(323.33 408.47)"/></g><g id="Group_1067" class="cls-4" data-name="Group 1067" transform="translate(8.318 46.528)"><path id="Rectangle_1122" d="M0 0h.561v148.997H0z" class="cls-5" data-name="Rectangle 1122" transform="translate(36.483)"/><path id="Rectangle_1131" d="M0 0h.561v148.997H0z" class="cls-6" data-name="Rectangle 1131" transform="translate(16.838)"/><path id="Rectangle_1132" d="M0 0h.561v148.997H0z" class="cls-7" data-name="Rectangle 1132"/><path id="Rectangle_1133" d="M0 0h.561v148.997H0z" class="cls-6" data-name="Rectangle 1133" transform="translate(188.027)"/><path id="Rectangle_1134" d="M0 0h.561v148.997H0z" class="cls-7" data-name="Rectangle 1134" transform="translate(204.866)"/><path id="Rectangle_1123" d="M0 0h.561v148.997H0z" class="cls-5" data-name="Rectangle 1123" transform="translate(53.321)"/><path id="Rectangle_1124" d="M0 0h.561v148.997H0z" class="cls-5" data-name="Rectangle 1124" transform="translate(70.16)"/><path id="Rectangle_1125" d="M0 0h.561v148.997H0z" class="cls-5" data-name="Rectangle 1125" transform="translate(86.998)"/><path id="Rectangle_1126" d="M0 0h.561v148.997H0z" class="cls-5" data-name="Rectangle 1126" transform="translate(103.836)"/><path id="Rectangle_1127" d="M0 0h.561v148.997H0z" class="cls-5" data-name="Rectangle 1127" transform="translate(120.674)"/><path id="Rectangle_1128" d="M0 0h.561v148.997H0z" class="cls-5" data-name="Rectangle 1128" transform="translate(137.513)"/><path id="Rectangle_1129" d="M0 0h.561v148.997H0z" class="cls-5" data-name="Rectangle 1129" transform="translate(154.351)"/><path id="Rectangle_1130" d="M0 0h.561v148.997H0z" class="cls-5" data-name="Rectangle 1130" transform="translate(171.189)"/><g id="Group_1062" data-name="Group 1062"><g class="cls-36" transform="translate(-331.653 -454.999)"><rect id="Rectangle_1113-2" width="6.174" height="63.985" class="cls-8" data-name="Rectangle 1113" rx="3.087" transform="translate(365.33 489.11)"/></g><g class="cls-35" transform="translate(-331.653 -454.999)"><rect id="Rectangle_1114-2" width="6.174" height="63.985" class="cls-9" data-name="Rectangle 1114" rx="3.087" transform="translate(382.14 508.57)"/></g><g class="cls-34" transform="translate(-331.653 -454.999)"><rect id="Rectangle_1115-2" width="6.174" height="63.985" class="cls-8" data-name="Rectangle 1115" rx="3.087" transform="translate(398.95 474.51)"/></g><g class="cls-33" transform="translate(-331.653 -454.999)"><rect id="Rectangle_1116-2" width="6.174" height="63.985" class="cls-8" data-name="Rectangle 1116" rx="3.087" transform="translate(415.76 493.97)"/></g><g class="cls-32" transform="translate(-331.653 -454.999)"><rect id="Rectangle_1117-2" width="6.174" height="63.985" class="cls-9" data-name="Rectangle 1117" rx="3.087" transform="translate(432.57 517.42)"/></g><g class="cls-31" transform="translate(-331.653 -454.999)"><rect id="Rectangle_1118-2" width="6.174" height="63.985" class="cls-8" data-name="Rectangle 1118" rx="3.087" transform="translate(449.38 476.28)"/></g><g class="cls-30" transform="translate(-331.653 -454.999)"><rect id="Rectangle_1119-2" width="6.174" height="63.985" class="cls-8" data-name="Rectangle 1119" rx="3.087" transform="translate(466.19 493.97)"/></g><g class="cls-29" transform="translate(-331.653 -454.999)"><rect id="Rectangle_1120-2" width="6.174" height="63.985" class="cls-9" data-name="Rectangle 1120" rx="3.087" transform="translate(483 528.48)"/></g><g class="cls-28" transform="translate(-331.653 -454.999)"><rect id="Rectangle_1121-2" width="6.174" height="63.985" class="cls-8" data-name="Rectangle 1121" rx="3.087" transform="translate(499.81 471.85)"/></g></g></g><g id="Group_1068" data-name="Group 1068" transform="translate(.295 10.042)"><rect id="Rectangle_1158" width="49.25" height="9.451" class="cls-10" data-name="Rectangle 1158" rx="4.726" transform="translate(17.426)"/><rect id="Rectangle_1159" width="85.542" height="9.451" class="cls-10" data-name="Rectangle 1159" rx="4.726" transform="translate(17.426 13.586)"/><path id="Line_215" d="M0 0h222.107" class="cls-11" data-name="Line 215" transform="translate(0 29.24)"/></g></g><g id="Group_1069" data-name="Group 1069" transform="translate(73.077 3459.005)"><g class="cls-27" transform="translate(-280.08 -125)"><rect id="Rectangle_1154-2" width="236.166" height="207.901" class="cls-3" data-name="Rectangle 1154" rx="8" transform="translate(280.08 125)"/></g><g id="Group_1066" data-name="Group 1066" transform="translate(10.678 46.202)"><path id="Rectangle_1135" d="M0 0h.585v155.422H0z" class="cls-12" data-name="Rectangle 1135" transform="translate(38.056)"/><path id="Rectangle_1136" d="M0 0h.585v155.422H0z" class="cls-12" data-name="Rectangle 1136" transform="translate(17.564)"/><path id="Rectangle_1138" d="M0 0h.585v155.422H0z" class="cls-12" data-name="Rectangle 1138" transform="translate(196.135)"/><path id="Rectangle_1139" d="M0 0h.585v155.422H0z" class="cls-12" data-name="Rectangle 1139" transform="translate(213.7)"/><path id="Rectangle_1140" d="M0 0h.585v155.422H0z" class="cls-12" data-name="Rectangle 1140" transform="translate(55.62)"/><path id="Rectangle_1141" d="M0 0h.585v155.422H0z" class="cls-12" data-name="Rectangle 1141" transform="translate(73.185)"/><path id="Rectangle_1142" d="M0 0h.585v155.422H0z" class="cls-12" data-name="Rectangle 1142" transform="translate(90.749)"/><path id="Rectangle_1143" d="M0 0h.585v155.422H0z" class="cls-12" data-name="Rectangle 1143" transform="translate(108.314)"/><path id="Rectangle_1144" d="M0 0h.585v155.422H0z" class="cls-12" data-name="Rectangle 1144" transform="translate(125.878)"/><path id="Rectangle_1145" d="M0 0h.585v155.422H0z" class="cls-12" data-name="Rectangle 1145" transform="translate(143.442)"/><path id="Rectangle_1146" d="M0 0h.585v155.422H0z" class="cls-12" data-name="Rectangle 1146" transform="translate(161.007)"/><path id="Rectangle_1147" d="M0 0h.585v155.422H0z" class="cls-12" data-name="Rectangle 1147" transform="translate(178.571)"/><path id="Path_1550" d="M9744.232-944.1c-7.856 0-9.709 22.846-19.795 20.642s-10.094-93.461-30.312-93.461-19.342 66.187-29.446 81.82-25.98-7.65-35.219-21.952-19.63-5.654-23.671 9.313-4.908 24.612-14.435 24.28-13.568-25.943-25.981-25.943-18.476 38.381-18.476 38.381l211-2.162s-5.806-30.918-13.665-30.918z" class="cls-13" data-name="Path 1550" transform="translate(-9543.817 1061.677)"/><path id="Path_1551" d="M9735.583-937.059c-15.762.375-14.126 18.39-22 10.884s-8.248-30.745-28.465-30.745-23.095 27.425-25.98 36-11.406 32.679-20.645 20.266-8.631-18.389-18.014-18.014-9.238 18.3-18.764 18.014-11.606-20.266-24.018-20.266-30.8 33.4-30.8 33.4h211s-6.552-49.914-22.314-49.539z" class="cls-14" data-name="Path 1551" transform="translate(-9543.817 1038.177)"/><path id="Rectangle_1137" d="M0 0h.585v155.422H0z" class="cls-7" data-name="Rectangle 1137"/><g id="Ellipse_403" class="cls-15" data-name="Ellipse 403" transform="translate(19.89 110.5)"><ellipse cx="1.876" cy="1.876" class="cls-19" rx="1.876" ry="1.876"/><ellipse cx="1.876" cy="1.876" class="cls-20" rx="3.876" ry="3.876"/></g><g id="Ellipse_404" class="cls-15" data-name="Ellipse 404" transform="translate(73.181 95.864)"><ellipse cx="1.876" cy="1.876" class="cls-19" rx="1.876" ry="1.876"/><ellipse cx="1.876" cy="1.876" class="cls-20" rx="3.876" ry="3.876"/></g><g id="Ellipse_405" class="cls-15" data-name="Ellipse 405" transform="translate(138.481 79.351)"><ellipse cx="1.876" cy="1.876" class="cls-19" rx="1.876" ry="1.876"/><ellipse cx="1.876" cy="1.876" class="cls-20" rx="3.876" ry="3.876"/></g><g id="Ellipse_406" class="cls-15" data-name="Ellipse 406" transform="translate(147.113 42.948)"><ellipse cx="1.876" cy="1.876" class="cls-19" rx="1.876" ry="1.876"/><ellipse cx="1.876" cy="1.876" class="cls-20" rx="3.876" ry="3.876"/></g><g id="Ellipse_407" class="cls-15" data-name="Ellipse 407" transform="translate(75.058 117.631)"><ellipse cx="1.876" cy="1.876" class="cls-19" rx="1.876" ry="1.876"/><ellipse cx="1.876" cy="1.876" class="cls-20" rx="3.876" ry="3.876"/></g><g id="Ellipse_408" class="cls-15" data-name="Ellipse 408" transform="translate(33.025 115.004)"><ellipse cx="1.876" cy="1.876" class="cls-19" rx="1.876" ry="1.876"/><ellipse cx="1.876" cy="1.876" class="cls-20" rx="3.876" ry="3.876"/></g><g id="Ellipse_409" class="cls-15" data-name="Ellipse 409" transform="translate(200.028 116.129)"><ellipse cx="1.876" cy="1.876" class="cls-19" rx="1.876" ry="1.876"/><ellipse cx="1.876" cy="1.876" class="cls-20" rx="3.876" ry="3.876"/></g><g id="Ellipse_410" class="cls-15" data-name="Ellipse 410" transform="translate(190.646 99.617)"><ellipse cx="1.876" cy="1.876" class="cls-19" rx="1.876" ry="1.876"/><ellipse cx="1.876" cy="1.876" class="cls-20" rx="3.876" ry="3.876"/></g></g><rect id="Rectangle_1155" width="148.86" height="10.05" class="cls-10" data-name="Rectangle 1155" rx="5.025" transform="translate(18.843 15.074)"/><rect id="Rectangle_1156" width="42.711" height="10.05" class="cls-10" data-name="Rectangle 1156" rx="5.025" transform="translate(18.843 29.521)"/><path id="Line_214" d="M0 0h236.166" class="cls-11" data-name="Line 214" transform="translate(.314 46.165)"/></g><g id="Group_1072" data-name="Group 1072" transform="translate(371.903 3607.809)"><g class="cls-26" transform="translate(-578.9 -273.81)"><rect id="Rectangle_1157-4" width="187.255" height="147.844" class="cls-3" data-name="Rectangle 1157" rx="8" transform="translate(578.95 273.81)"/></g><g id="Group_1067-2" class="cls-16" data-name="Group 1067" transform="translate(6.764 39.227)"><path id="Rectangle_1122-2" d="M0 0h.473v104H0z" class="cls-5" data-name="Rectangle 1122" transform="translate(30.758)"/><path id="Rectangle_1131-2" d="M0 0h.473v104H0z" class="cls-6" data-name="Rectangle 1131" transform="translate(14.196)"/><path id="Rectangle_1132-2" d="M0 0h.473v104H0z" class="cls-7" data-name="Rectangle 1132"/><path id="Rectangle_1133-2" d="M0 0h.473v104H0z" class="cls-6" data-name="Rectangle 1133" transform="translate(158.523)"/><path id="Rectangle_1134-2" d="M0 0h.473v104H0z" class="cls-7" data-name="Rectangle 1134" transform="translate(172.719)"/><path id="Rectangle_1123-2" d="M0 0h.473v104H0z" class="cls-5" data-name="Rectangle 1123" transform="translate(44.954)"/><path id="Rectangle_1124-2" d="M0 0h.473v104H0z" class="cls-5" data-name="Rectangle 1124" transform="translate(59.15)"/><path id="Rectangle_1125-2" d="M0 0h.473v104H0z" class="cls-5" data-name="Rectangle 1125" transform="translate(73.346)"/><path id="Rectangle_1126-2" d="M0 0h.473v104H0z" class="cls-5" data-name="Rectangle 1126" transform="translate(87.543)"/><path id="Rectangle_1127-2" d="M0 0h.473v104H0z" class="cls-5" data-name="Rectangle 1127" transform="translate(101.739)"/><path id="Rectangle_1128-2" d="M0 0h.473v104H0z" class="cls-5" data-name="Rectangle 1128" transform="translate(115.935)"/><path id="Rectangle_1129-2" d="M0 0h.473v104H0z" class="cls-5" data-name="Rectangle 1129" transform="translate(130.131)"/><path id="Rectangle_1130-2" d="M0 0h.473v104H0z" class="cls-5" data-name="Rectangle 1130" transform="translate(144.327)"/></g><g id="Group_1068-2" data-name="Group 1068" transform="translate(0 8.466)"><rect id="Rectangle_1158-2" width="71.831" height="7.968" class="cls-10" data-name="Rectangle 1158" rx="3.984" transform="translate(14.692)"/><rect id="Rectangle_1159-2" width="35.515" height="7.968" class="cls-10" data-name="Rectangle 1159" rx="3.984" transform="translate(14.692 11.454)"/><path id="Line_215-2" d="M0 0h187.255" class="cls-11" data-name="Line 215" transform="translate(0 24.652)"/></g><g id="Group_1071" data-name="Group 1071" transform="translate(16.543 44.717)"><g id="Rectangle_1160" class="cls-17" data-name="Rectangle 1160" transform="translate(0 49.499)"><rect width="6.6" height="10.725" class="cls-19" rx="2"/><rect width="5.6" height="9.725" x=".5" y=".5" class="cls-20" rx="1.5"/></g><g id="Rectangle_1161" class="cls-17" data-name="Rectangle 1161" transform="translate(9.9 43.724)"><rect width="6.6" height="5.775" class="cls-19" rx="2"/><rect width="5.6" height="4.775" x=".5" y=".5" class="cls-20" rx="1.5"/></g><g id="Rectangle_1163" class="cls-17" data-name="Rectangle 1163" transform="translate(29.699 19.8)"><rect width="6.6" height="5.775" class="cls-19" rx="2"/><rect width="5.6" height="4.775" x=".5" y=".5" class="cls-20" rx="1.5"/></g><g id="Rectangle_1164" class="cls-17" data-name="Rectangle 1164" transform="translate(39.599 3.3)"><rect width="6.6" height="16.5" class="cls-19" rx="2"/><rect width="5.6" height="15.5" x=".5" y=".5" class="cls-20" rx="1.5"/></g><g id="Rectangle_1171" class="cls-17" data-name="Rectangle 1171" transform="translate(108.898 43.724)"><rect width="6.6" height="8.25" class="cls-19" rx="2"/><rect width="5.6" height="7.25" x=".5" y=".5" class="cls-20" rx="1.5"/></g><g id="Rectangle_1172" class="cls-17" data-name="Rectangle 1172" transform="translate(118.798 19.8)"><rect width="6.6" height="23.925" class="cls-19" rx="2"/><rect width="5.6" height="22.925" x=".5" y=".5" class="cls-20" rx="1.5"/></g><g id="Rectangle_1173" class="cls-17" data-name="Rectangle 1173" transform="translate(128.698 14.025)"><rect width="6.6" height="5.775" class="cls-19" rx="2"/><rect width="5.6" height="4.775" x=".5" y=".5" class="cls-20" rx="1.5"/></g><g id="Rectangle_1174" class="cls-17" data-name="Rectangle 1174" transform="translate(138.597)"><rect width="6.6" height="14.85" class="cls-19" rx="2"/><rect width="5.6" height="13.85" x=".5" y=".5" class="cls-20" rx="1.5"/></g><g id="Rectangle_1166" class="cls-17" data-name="Rectangle 1166" transform="translate(59.399 10.725)"><rect width="6.6" height="9.075" class="cls-19" rx="2"/><rect width="5.6" height="8.075" x=".5" y=".5" class="cls-20" rx="1.5"/></g><g id="Rectangle_1167" class="cls-17" data-name="Rectangle 1167" transform="translate(69.299 4.95)"><rect width="6.6" height="5.775" class="cls-19" rx="2"/><rect width="5.6" height="4.775" x=".5" y=".5" class="cls-20" rx="1.5"/></g><g class="cls-25" transform="translate(-595.45 -318.53)"><rect id="Rectangle_1165-2" width="6.6" height="57.749" class="cls-18" data-name="Rectangle 1165" rx="2" transform="translate(644.95 337.5)"/></g><g class="cls-24" transform="translate(-595.45 -318.53)"><rect id="Rectangle_1168-2" width="6.6" height="18.15" class="cls-18" data-name="Rectangle 1168" rx="2" transform="translate(674.64 329.25)"/></g><g class="cls-23" transform="translate(-595.45 -318.53)"><rect id="Rectangle_1169-2" width="6.6" height="22.275" class="cls-18" data-name="Rectangle 1169" rx="2" transform="translate(684.54 347.4)"/></g><g class="cls-22" transform="translate(-595.45 -318.53)"><rect id="Rectangle_1170-2" width="6.6" height="34.649" class="cls-18" data-name="Rectangle 1170" rx="2" transform="translate(694.44 369.68)"/></g><g class="cls-21" transform="translate(-595.45 -318.53)"><rect id="Rectangle_1175-2" width="6.6" height="19.8" class="cls-18" data-name="Rectangle 1175" rx="2" transform="translate(743.94 331.73)"/></g><g id="Rectangle_1162" class="cls-17" data-name="Rectangle 1162" transform="translate(19.8 25.575)"><rect width="6.6" height="18.15" class="cls-19" rx="2"/><rect width="5.6" height="17.15" x=".5" y=".5" class="cls-20" rx="1.5"/></g></g></g></g></svg>