<svg xmlns="http://www.w3.org/2000/svg" width="146" height="64" viewBox="0 0 146 64">
    <g fill="none" fill-rule="evenodd">
        <path fill="#6D6E70" fill-rule="nonzero" d="M7.655 29.154c.235.044 14.616.036 14.776-.007-.003-.051-.002-.105-.01-.158-.12-.824-.316-1.63-.645-2.398-.309-.72-.724-1.373-1.287-1.92-.672-.655-1.47-1.096-2.366-1.363-1.089-.325-2.203-.412-3.332-.346-1.186.07-2.307.37-3.356.931-.715.383-1.348.874-1.892 1.474-.624.687-1.096 1.471-1.441 2.332-.188.468-.34.946-.447 1.455zm11.701 5.54H9.643c-.274 0-.544.032-.804.12-.607.205-.87.686-.844 1.274.015.335.099.659.233.968.401.929.944 1.762 1.667 2.475.764.754 1.658 1.3 2.67 1.653.789.275 1.601.424 2.438.453 1.345.047 2.663-.098 3.941-.532 1.001-.34 1.896-.858 2.637-1.623.41-.424.745-.902 1.013-1.427.028-.055.053-.112.083-.164.205-.352.53-.551 1.004-.333l.91.418c1.287.588 2.576 1.176 3.862 1.767.122.057.241.13.344.216.182.15.256.352.199.585-.033.131-.076.263-.136.383-.529 1.052-1.179 2.022-1.97 2.896-.96 1.061-2.07 1.927-3.335 2.597-1.446.767-2.987 1.243-4.596 1.515-.82.138-1.643.235-2.474.254-.653.016-1.307.048-1.959.02-2.06-.091-4.041-.537-5.921-1.403-1.328-.612-2.537-1.404-3.619-2.387-1.251-1.138-2.264-2.46-3.053-3.958-.843-1.6-1.386-3.296-1.676-5.078-.1-.618-.166-1.24-.21-1.864-.058-.824-.062-1.649-.016-2.47.096-1.71.438-3.37 1.055-4.972.391-1.014.884-1.976 1.48-2.884.432-.655.92-1.266 1.451-1.844.775-.84 1.64-1.576 2.59-2.208 1.071-.713 2.217-1.274 3.437-1.688 1.205-.408 2.44-.667 3.707-.783.794-.072 1.59-.097 2.385-.058 1.933.094 3.807.461 5.585 1.252 1.248.554 2.384 1.281 3.397 2.2 1.256 1.14 2.24 2.482 2.995 3.998.677 1.363 1.137 2.797 1.434 4.286.16.801.28 1.608.333 2.424.034.522.06 1.045.076 1.568.016.456.015.913.02 1.37 0 .1-.007.203-.018.305-.04.356-.287.612-.644.666-.087.013-.176.012-.265.012h-9.693zM51.512 33.587c-.095.017-.155.026-.215.039l-7.111 1.592c-.903.202-1.808.396-2.679.72-.629.233-1.225.523-1.738.967-.909.787-1.103 2.012-.632 3.05.315.692.872 1.138 1.537 1.46.797.387 1.654.538 2.53.577.597.027 1.196.002 1.793-.069 1.282-.154 2.507-.497 3.658-1.089.738-.38 1.41-.852 1.951-1.49.594-.7.925-1.494.91-2.428-.017-1.029-.004-2.058-.004-3.087v-.242zm.693 10.617c-.042.054-.073.088-.099.126-.536.797-1.221 1.441-2.016 1.974-1.27.852-2.677 1.36-4.164 1.665-1.017.21-2.043.319-3.082.297-.354-.007-.71.005-1.063-.012-.988-.046-1.962-.193-2.92-.445-1.308-.345-2.533-.87-3.64-1.66-1.129-.807-2.022-1.818-2.632-3.068-.53-1.085-.793-2.237-.85-3.444-.033-.676-.004-1.346.099-2.013.2-1.296.71-2.449 1.601-3.426.628-.688 1.371-1.22 2.18-1.667 1-.552 2.064-.952 3.15-1.295 1.748-.552 3.536-.948 5.325-1.336 1.23-.267 2.464-.52 3.693-.792.645-.143 1.285-.306 1.904-.544.325-.125.632-.285.913-.494.523-.389.777-.915.791-1.56.02-.915-.382-1.624-1.072-2.191-.657-.54-1.425-.844-2.242-1.037-.874-.205-1.762-.25-2.657-.213-.681.027-1.357.092-2.023.24-1.03.229-1.958.66-2.74 1.38-.51.471-.922 1.02-1.259 1.625-.126.225-.236.46-.357.688-.057.108-.117.216-.186.316-.16.232-.389.327-.658.253-.209-.057-.41-.144-.608-.233-1.446-.65-2.89-1.305-4.336-1.958-.074-.034-.148-.071-.226-.094-.444-.132-.626-.536-.503-.95.085-.286.203-.564.33-.834.443-.944 1.023-1.795 1.73-2.564.951-1.035 2.065-1.85 3.31-2.495 1.576-.816 3.255-1.303 5.005-1.562.883-.13 1.77-.21 2.662-.208.578.002 1.157-.013 1.733.018 1.845.1 3.65.412 5.365 1.132 1.09.458 2.085 1.065 2.956 1.866 1.155 1.064 1.972 2.352 2.506 3.825.347.958.562 1.946.678 2.958.088.764.12 1.531.119 2.3-.003 3.409-.017 6.817.005 10.224.011 1.644.187 3.274.683 4.853.286.914.682 1.778 1.178 2.597.108.18.21.369.272.567.083.263-.041.487-.295.598-.08.035-.168.057-.255.07-.1.014-.203.015-.305.015h-5.848c-.096 0-.191-.002-.285-.014-.363-.046-.63-.22-.802-.554-.364-.706-.629-1.448-.852-2.207-.056-.19-.104-.38-.158-.57-.012-.044-.031-.085-.055-.147zM92.343 16.567c1.462.035 2.909.17 4.33.523 1.74.43 3.346 1.147 4.763 2.257 1.5 1.176 2.603 2.659 3.375 4.394.074.168.153.335.207.51.103.335.007.59-.296.766-.17.097-.356.168-.54.238-1.496.567-2.992 1.133-4.49 1.695-.125.046-.262.068-.396.084-.296.036-.494-.115-.627-.363-.097-.18-.181-.366-.274-.548-.296-.58-.666-1.11-1.123-1.574-.806-.819-1.79-1.32-2.9-1.587-.644-.155-1.297-.224-1.96-.25-.813-.032-1.617.021-2.413.192-.706.152-1.374.396-1.942.861-.455.373-.748.84-.82 1.434-.07.57.076 1.062.484 1.476.401.408.895.662 1.41.884.84.361 1.713.627 2.594.862 1.308.35 2.621.684 3.932 1.024 1.445.374 2.879.781 4.265 1.338 1.078.433 2.113.949 3.045 1.65 1.543 1.163 2.464 2.695 2.752 4.61.115.766.128 1.534.097 2.302-.049 1.219-.348 2.38-.926 3.461-.6 1.126-1.437 2.045-2.46 2.8-1.186.879-2.514 1.462-3.925 1.868-.911.262-1.84.434-2.781.545-.723.085-1.449.122-2.177.14-.859.02-1.714-.009-2.569-.077-1.333-.106-2.645-.336-3.92-.75-1.574-.513-2.996-1.295-4.228-2.408-.757-.684-1.404-1.464-1.964-2.315-.547-.834-.989-1.722-1.389-2.635-.273-.624.041-1.073.504-1.302.47-.233.946-.452 1.42-.675l1.94-.913 1.016-.48c.139-.066.283-.093.436-.087.192.007.342.088.448.243.057.084.103.177.14.27.342.847.787 1.631 1.378 2.33.824.972 1.844 1.664 3.034 2.11.796.298 1.62.471 2.465.54.339.027.679.066 1.017.06 1.338-.025 2.667-.122 3.913-.681.503-.226.958-.525 1.299-.966.491-.639.654-1.354.429-2.136-.124-.429-.416-.744-.764-1.01-.42-.32-.89-.55-1.378-.748-.848-.342-1.724-.594-2.606-.83-1.546-.41-3.097-.802-4.638-1.231-1.398-.39-2.77-.863-4.092-1.465-1.026-.467-2.002-1.018-2.868-1.75-1.227-1.038-2.003-2.335-2.28-3.924-.115-.654-.136-1.314-.11-1.975.031-.737.156-1.46.379-2.165.351-1.115.92-2.105 1.704-2.97 1.178-1.3 2.642-2.149 4.28-2.724 1.18-.416 2.398-.671 3.643-.783.718-.064 1.438-.097 2.157-.145" transform="translate(20 8)"/>
        <path fill="#6D6E70" fill-rule="nonzero" d="M69.917 17.487h.277l7.463.001c.11 0 .22 0 .326.021.32.061.55.311.598.644.013.094.014.19.014.285v4.478c0 .694-.275.972-.963.972-1.915 0-3.83-.004-5.746.003-.551.002-1.04.185-1.432.59-.343.356-.502.787-.536 1.271-.003.034 0 .068 0 .103 0 3.98-.004 7.96.003 11.941 0 .668.144 1.31.468 1.903.429.781 1.097 1.227 1.959 1.402.673.136 1.34.074 2.005-.059.731-.146 1.433-.384 2.117-.675.177-.076.358-.117.553-.099.194.019.332.12.436.27.065.095.114.201.166.304l2.149 4.295c.071.142.128.285.117.448-.02.287-.176.48-.432.594-1.19.53-2.404.991-3.674 1.292-.709.168-1.425.298-2.154.34-.536.031-1.074.067-1.61.056-1.466-.03-2.9-.247-4.271-.794-.88-.352-1.684-.833-2.393-1.463-.699-.622-1.256-1.356-1.684-2.188-.623-1.211-.941-2.507-1.048-3.856-.044-.562-.061-1.128-.062-1.692-.004-8.936-.002-17.871-.001-26.807 0-.115.005-.232.028-.344.07-.35.294-.56.65-.613.093-.013.19-.016.285-.016 1.813 0 3.626-.001 5.439.001.128 0 .26.011.383.044.315.083.495.3.546.618.02.12.023.244.023.366.002 2.031.001 4.063.001 6.094v.27M19.75 4.604c.067.004.114.01.161.01 1.13 0 2.26.004 3.39-.003.23-.002.463-.031.688-.076.45-.09.735-.362.83-.82.07-.343.07-.686 0-1.03-.082-.414-.323-.688-.727-.797-.214-.057-.44-.091-.662-.093-1.158-.01-2.315-.005-3.473-.004-.066 0-.132.006-.207.01v2.803zm-.011 4.544c.073.006.119.013.165.013 1.282 0 2.563.003 3.844-.002.306 0 .611-.025.906-.125.374-.128.601-.381.688-.766.077-.343.08-.687.029-1.033-.072-.478-.332-.8-.808-.92-.203-.05-.415-.088-.623-.09-1.002-.01-2.004-.011-3.005.001-.227.003-.46.055-.679.12-.268.079-.432.279-.479.558-.024.147-.035.297-.037.446-.004.395-.001.79-.001 1.186v.612zm6.32-3.947c.37.114.675.268.932.51.338.319.547.714.66 1.155.188.726.198 1.454-.031 2.174-.22.687-.672 1.174-1.319 1.481-.53.252-1.093.384-1.676.398-.987.022-1.975.024-2.962.028-1.104.004-2.208.002-3.312 0-.128 0-.257-.014-.385-.028-.277-.031-.447-.188-.508-.457-.02-.091-.024-.189-.024-.283L17.433.796c0-.061-.002-.123.006-.184.034-.268.174-.459.438-.532.156-.042.32-.073.481-.073 1.785-.005 3.57-.013 5.356.001.647.005 1.288.088 1.903.316 1.026.383 1.519 1.144 1.568 2.214.016.361.006.721-.072 1.078-.138.63-.43 1.157-.976 1.524-.016.011-.031.025-.079.061zM47.577 5.072c.078.005.137.012.197.012 1.165.001 2.329.008 3.493-.003.304-.003.613-.036.91-.1.447-.097.716-.395.811-.845.075-.356.073-.716.045-1.076-.013-.161-.042-.325-.09-.48-.097-.318-.31-.536-.625-.652-.258-.095-.527-.135-.8-.136-1.26-.003-2.52-.002-3.78 0-.051 0-.103.01-.16.015v3.265zm-.007 5.862c-.08.006-.132.013-.185.013h-1.759c-.054 0-.11-.002-.161-.014-.119-.029-.188-.11-.205-.228-.009-.067-.004-.136-.004-.205V.83c0-.061-.004-.123.002-.184.025-.296.182-.497.47-.572.15-.04.308-.067.462-.068 1.772-.004 3.544-.012 5.316.002.667.006 1.33.091 1.967.314.93.325 1.545.942 1.774 1.916.192.823.18 1.646-.04 2.462-.253.934-.859 1.524-1.775 1.808l-.211.066c.024.055.04.104.066.147.578.979 1.158 1.957 1.738 2.935l.551.931.03.054c.113.217.063.306-.173.307-.661 0-1.323-.002-1.983.002-.168 0-.275-.058-.36-.21-.685-1.255-1.381-2.503-2.067-3.757-.069-.125-.142-.172-.285-.17-.647.007-1.294.001-1.942.003-.253.001-.501.03-.74.127-.28.114-.43.324-.466.618-.015.12-.019.244-.019.366V10.934zM41.362.017c-.216.541-.42 1.045-.62 1.55-.063.16-.174.228-.347.226-.457-.006-.913-.003-1.37-.003h-4.792v2.737c.077.003.155.01.233.01h4.764c.107 0 .213.016.34.026-.023.08-.035.139-.057.192-.174.422-.355.84-.525 1.264-.076.19-.198.27-.405.268-1.042-.005-2.085-.006-3.128.001-.202.002-.41.025-.604.077-.492.13-.613.41-.624.776-.021.647-.006 1.295-.004 1.942 0 .019.011.037.023.075h7.09c-.017.073-.02.126-.039.172-.18.456-.365.91-.542 1.367-.071.185-.194.254-.391.254-2.563-.004-5.126.001-7.688-.006-.598-.002-.731-.213-.787-.766-.004-.047 0-.095 0-.143L31.89 1c0-.142.011-.285.03-.426.03-.209.137-.38.34-.45.17-.06.354-.114.532-.115C35.58.001 38.367.003 41.155.004c.058 0 .117.007.207.013M4.688.03v.237c0 2.133-.003 4.266.002 6.4.001.388.061.77.184 1.143.231.705.715 1.142 1.417 1.348.561.166 1.14.194 1.72.164.277-.014.556-.048.828-.104 1.011-.206 1.602-.815 1.77-1.834.055-.334.084-.676.085-1.014.008-1.976.004-3.953.004-5.93V.297c.007-.197.093-.285.286-.293.034-.002.069 0 .103 0h1.97c.005.087.01.154.01.22.001 2.201.013 4.403-.004 6.604-.007.89-.21 1.74-.72 2.495-.394.581-.926.991-1.562 1.272-.7.309-1.44.45-2.199.495-.387.022-.775.03-1.163.024-.828-.01-1.641-.12-2.425-.4-.904-.325-1.628-.87-2.092-1.727-.253-.466-.408-.967-.468-1.492-.041-.364-.073-.731-.074-1.097-.007-1.977-.004-3.953-.003-5.93 0-.06-.005-.123.001-.183.017-.175.117-.279.29-.28.654-.003 1.308 0 1.962.001.02 0 .038.012.078.025" transform="translate(20 8)"/>
        <path fill="#FFFFFE" d="M7.655 29.154c.108-.509.26-.987.447-1.455.345-.86.817-1.645 1.44-2.332.545-.6 1.178-1.091 1.893-1.474 1.049-.56 2.17-.862 3.356-.93 1.13-.067 2.243.02 3.332.345.895.267 1.694.708 2.366 1.362.563.548.978 1.2 1.287 1.921.33.769.524 1.574.645 2.398.008.053.007.107.01.158-.16.043-14.541.051-14.776.007M19.739 9.148v-.612c0-.395-.003-.79.001-1.186.002-.149.013-.3.037-.446.047-.279.21-.479.48-.558.219-.065.45-.117.678-.12 1.001-.012 2.003-.01 3.005-.001.208.002.42.04.623.09.476.12.736.442.808.92.05.346.048.69-.029 1.033-.087.385-.314.638-.688.766-.295.1-.6.124-.906.125-1.28.005-2.562.002-3.844.002-.046 0-.092-.007-.165-.013M19.75 4.604V1.8c.075-.004.141-.01.207-.01 1.158 0 2.315-.005 3.473.004.221.002.448.036.662.093.404.109.645.383.728.797.068.344.07.687-.001 1.03-.095.458-.38.73-.83.82-.225.045-.458.074-.687.076-1.13.007-2.26.003-3.39.003-.048 0-.095-.006-.162-.01M47.577 5.072V1.807c.058-.006.11-.016.162-.016 1.26 0 2.52-.002 3.78.001.272 0 .54.041.799.136.316.116.528.334.626.653.047.154.076.318.089.479.028.36.03.72-.045 1.076-.095.45-.364.748-.812.845-.296.064-.605.097-.909.1-1.164.01-2.328.004-3.493.003-.06 0-.12-.007-.197-.012" transform="translate(20 8)"/>
    </g>
</svg>
