<svg viewBox="0 0 16 16" xmlns="http://www.w3.org/2000/svg"><path d="M0 2.1C0 .94.94 0 2.1 0h11.8c1.16 0 2.1.94 2.1 2.1v11.8a2.1 2.1 0 0 1-2.1 2.1H2.1A2.1 2.1 0 0 1 0 13.9V2.1zm8.19 1.94a4.52 4.52 0 1 0 0 9.05 4.52 4.52 0 0 0 0-9.05zm0 7.71a3.19 3.19 0 1 1 0-6.37 3.19 3.19 0 0 1 0 6.37zm0-5.72v2.38c0 .07.07.11.13.08l2.1-1.1a.1.1 0 0 0 .05-.12 2.63 2.63 0 0 0-2.19-1.33.1.1 0 0 0-.1.1zM5.23 4.3l-.27-.27a.7.7 0 0 0-.98 0l-.33.33a.7.7 0 0 0 0 .98l.27.27c.04.04.1.04.14 0a5.2 5.2 0 0 1 1.16-1.16.1.1 0 0 0 .01-.15zm4.44-.72v-.54a.7.7 0 0 0-.7-.7H7.36a.7.7 0 0 0-.7.7v.56c0 .06.06.1.12.09a5.03 5.03 0 0 1 2.77-.02.1.1 0 0 0 .12-.09z"/></svg>